<svg width="58" height="56" viewBox="0 0 58 56" fill="none" xmlns="http://www.w3.org/2000/svg">
<g style="mix-blend-mode:multiply">
<path d="M22.2412 15.3743C22.1467 15.1322 22.0226 14.9151 21.8691 14.7227C21.7155 14.5304 21.5291 14.3638 21.3081 14.2227C21.0879 14.0822 20.2108 13.6861 19.7327 14.4732C17.6057 17.9733 13.6414 28.3269 13.3638 29.1103C13.0862 29.894 12.5052 31.4103 12.2299 32.0247C12.1702 31.1751 12.2685 27.6937 12.1323 25.9768C12.1089 25.5938 12.0043 23.2583 10.4925 23.5125C9.77803 23.6336 9.17387 24.1344 8.68101 25.0141C8.05673 26.0855 7.51493 27.1277 7.05426 28.1413C6.74949 28.7815 6.435 29.503 6.10945 30.3071C5.78356 31.1116 5.53747 31.7371 5.37252 32.1833C5.20723 32.6305 4.92861 33.4095 4.53601 34.5217C4.14373 35.6339 3.90502 36.3059 3.82019 36.5387C3.82422 36.5558 3.75649 36.7133 3.61735 37.0123C3.56438 36.725 3.55633 36.3293 3.59288 35.8252C3.73705 33.3269 3.90133 30.7647 3.98314 29.4384L4.02337 28.5584C4.05623 27.6686 4.07668 27.1087 4.07768 27.0762C4.14005 25.8757 4.07836 23.2095 3.98347 22.69C3.96771 22.0936 3.86311 21.4029 3.6663 20.6158C3.56974 20.2502 2.98771 19.5471 2.58102 19.4197C2.15991 19.0467 1.71064 18.9186 1.75188 19.7555C1.74518 19.8803 1.74685 20.0255 1.75658 20.19C1.7663 20.3549 1.7777 20.5279 1.79077 20.7095C1.80452 20.8908 1.81592 21.0423 1.8243 21.1631C1.91248 22.9192 1.93025 24.9873 1.87929 25.7292C1.83939 26.3226 1.81089 27.5863 1.76898 28.5584H1.76596C1.45181 32.7165 0.825852 41.0025 0.755444 41.9572C0.658885 43.265 1.42231 43.539 1.76496 43.6805C1.7777 43.6858 1.78843 43.6875 1.8005 43.6922C1.9393 43.7765 2.07408 43.8327 2.17366 43.8738C2.99173 44.2116 3.3327 43.7768 3.41451 43.6775C3.49632 43.5778 3.56103 43.4784 3.60729 43.3784C4.10149 42.2863 4.44045 41.4256 4.62318 40.7978C5.72087 37.1013 6.61873 34.399 7.31711 32.691C7.39322 32.496 7.5156 32.1829 7.68524 31.7528C7.85489 31.323 7.98699 30.9945 8.08221 30.768C8.17743 30.5419 8.30182 30.2369 8.45705 29.8545C8.61161 29.4722 8.74874 29.1471 8.86944 28.8788C8.9898 28.6112 9.13397 28.3152 9.30328 27.9911C9.47159 27.6676 9.63621 27.3626 9.79647 27.0756C9.80888 27.0552 9.98791 26.7728 10.3332 26.2286C10.3406 26.4039 10.3574 26.6163 10.3829 26.8662C10.4087 27.1164 10.1817 32.1254 10.168 32.2876C10.1136 33.079 10.0794 34.7485 10.0654 37.2973C10.063 37.5807 10.1559 37.8145 10.3433 37.9984C10.4137 38.07 11.4262 38.9869 11.8641 38.6754C11.9865 38.5885 12.0653 38.5028 12.1095 38.4299C12.1541 38.3573 12.2101 38.2423 12.2775 38.0841C12.417 37.785 12.588 37.3281 12.7922 36.7123C12.8388 36.5421 19.2231 19.3344 20.0545 17.7352C20.0626 17.7218 20.1488 17.5917 20.2983 17.3662C20.2943 17.7074 20.2866 18.0637 20.2721 18.4493C20.248 19.1096 20.2185 19.6425 20.1853 20.0482C20.1514 20.4539 20.1025 21.0671 20.0371 21.8872C19.9724 22.7078 19.9218 23.2633 19.8869 23.5547C19.8551 23.9417 19.786 24.6866 19.6804 25.7831C19.499 27.4723 19.3216 29.2029 19.1711 30.9296C19.1708 30.9336 19.1704 30.9373 19.1698 30.9416C19.1698 30.9436 19.1698 30.9456 19.1698 30.9456C19.1268 31.4387 19.0869 31.9281 19.0494 32.4171C19.0363 32.5796 19.0236 32.7395 19.0118 32.8951H19.0139C18.9247 34.1213 18.8529 35.3362 18.8127 36.5186C18.7745 37.6462 18.8033 38.7607 18.7885 39.8877C18.7497 41.3842 19.0568 42.6198 19.376 43.2419C19.7334 44.4739 20.5702 44.9194 20.6094 43.7628C20.7375 39.987 21.0315 36.2082 21.3444 32.4422C21.405 31.8227 21.4697 31.147 21.5388 30.4095C21.6092 29.6602 21.684 28.8497 21.7631 27.9784C21.7983 27.6874 21.8305 27.3304 21.86 26.9076C21.8895 26.4852 21.92 26.0845 21.9515 25.7055C21.9824 25.3268 22.0196 24.9729 22.0635 24.6441C22.4209 21.1811 22.5346 18.3517 22.4052 16.1557C22.3897 15.8771 22.3348 15.6162 22.2399 15.3743H22.2412Z" fill="#7E5F40"/>
<path d="M54.5568 21.9111C54.5608 21.8569 54.5782 21.4201 54.6074 20.5996C54.5829 20.5705 54.3308 19.7704 53.9503 19.4339C53.5701 19.0974 53.1111 19.4439 53.0236 19.4476C52.7537 19.0716 52.6172 18.8749 52.6132 18.8582C52.3896 18.5946 52.121 18.421 51.8082 18.3384C51.4957 18.2554 51.1822 18.2969 50.8681 18.4615C50.3152 18.7378 49.81 19.2057 49.3516 19.865C48.8085 20.6865 48.3995 21.4054 48.1245 22.0198C47.6934 23.0089 47.7118 23.8084 48.1802 24.4192C48.2342 24.4947 49.2678 26.1003 50.283 25.7896C50.5543 25.7066 50.794 25.6344 50.9884 25.525C51.1829 25.4159 51.3854 25.2648 51.5956 25.0721C51.8052 24.8801 51.9708 24.7068 52.0932 24.5533C52.2149 24.4004 52.3694 24.1987 52.5565 23.9499C52.7436 23.7013 52.9005 23.5083 53.0266 23.3715C53.6706 24.6292 54.0234 25.3116 54.0857 25.4203C54.3419 25.8882 55.2136 26.0067 55.404 25.8324C55.5036 25.7414 55.4198 25.4842 55.3507 25.3771C54.7844 24.4369 54.5192 23.2819 54.5561 21.9115L54.5568 21.9111ZM52.2762 20.9551C51.7488 21.9148 50.9797 22.8975 49.9679 23.904C49.9514 23.908 49.7751 24.0806 49.6668 23.9773C49.5598 23.6144 49.638 23.1357 49.9005 22.5413C50.1288 22.0265 50.4815 21.4943 50.9579 20.9448C51.4354 20.3955 51.8491 20.043 52.2005 19.8864C52.4274 20.3086 52.4533 20.6648 52.2762 20.9551Z" fill="#7E5F40"/>
<path d="M56.2603 7.76868C55.0758 8.07407 49.5136 9.83049 49.3674 9.8131C49.6158 8.65676 49.7657 7.91017 49.7664 7.83892C49.8056 7.5643 49.8733 6.96824 49.9799 6.05039C50.5244 1.35444 49.6822 0.859391 49.009 0.943683C48.3358 1.02798 47.627 1.50563 47.2806 2.13381C46.2983 3.91465 45.2415 7.70446 45.101 11.2554C41.4931 12.8747 39.3759 13.8872 38.3824 14.5358C37.9389 14.8208 37.8279 15.2011 38.0505 15.6771C38.2074 16.028 39.2173 16.3324 39.6639 16.0795C39.9733 15.9042 40.2878 15.6333 40.2878 15.6333C40.1581 15.5363 39.9569 15.4326 39.5422 15.4731C40.3539 15.0988 42.1174 14.413 44.8325 13.4156C44.6823 15.6263 44.6021 16.8569 44.5924 17.1064C44.5552 17.8225 44.4053 18.4424 44.1441 18.9655C43.4806 20.3824 42.8443 21.7655 42.2361 23.1156C42.2197 23.15 42.2079 23.1901 42.1918 23.2253C42.1436 23.3159 42.0939 23.4076 42.0567 23.4902C41.8968 23.8571 41.5518 24.0444 41.0593 23.9471C40.7421 23.8892 39.8385 23.5591 39.1428 23.3246C38.6352 23.0751 38.0271 22.87 37.3136 22.7118C37.0511 22.6519 36.7936 22.7235 36.5425 22.9259C36.1901 23.2239 35.8753 23.5654 35.5973 23.9515C35.5339 24.0555 35.1719 24.674 34.5104 25.8069C34.5828 24.7288 34.6324 24.0628 34.6592 23.8086C34.679 23.1048 33.9223 22.7372 33.6752 22.8286C33.411 22.9105 33.2061 23.049 33.0586 23.244C32.9792 23.349 32.9171 23.4497 32.8695 23.5467C32.6556 23.8728 32.4591 24.194 32.2821 24.5094C32.0823 24.8489 31.8761 25.2319 31.6629 25.6584C31.4493 26.0852 31.288 26.417 31.1801 26.6538C31.0718 26.891 30.889 27.3044 30.6319 27.8945C30.3747 28.4845 30.2182 28.8411 30.1628 28.9645C30.1655 28.9735 30.1213 29.0572 30.0297 29.2157C30.0193 29.1705 30.0126 29.1187 30.0076 29.0635C30.0086 29.0461 30.01 29.0281 30.0106 29.011C30.015 28.9568 30.0338 28.52 30.0653 27.6994C30.0391 27.6703 29.8111 26.8385 29.3592 26.5337C28.9072 26.2294 28.457 26.5438 28.3631 26.5475C28.0731 26.1715 27.9266 25.9748 27.9219 25.9581C27.6815 25.6945 27.3931 25.5209 27.0565 25.4383C26.7206 25.3553 26.3836 25.3968 26.046 25.561C25.4519 25.8373 24.9087 26.3053 24.4159 26.9646C23.8322 27.7861 23.3923 28.5049 23.0969 29.1194C22.6336 30.1085 22.6534 30.9082 23.1566 31.5187C23.2146 31.5943 24.4444 33.1192 25.417 32.8891C25.7127 32.8192 25.9662 32.7339 26.1754 32.6245C26.3846 32.5155 26.6022 32.3643 26.8282 32.1713C27.0535 31.9793 27.2315 31.806 27.363 31.6525C27.4937 31.4996 27.66 31.2979 27.8612 31.0491C27.943 30.9477 28.0181 30.8581 28.0892 30.7754C28.0419 31.2842 28.008 31.6478 27.9966 31.7729C27.9333 32.4666 28.5907 32.6784 28.8154 32.7533C28.8238 32.756 28.8308 32.757 28.8388 32.7593C28.93 32.8041 29.0182 32.8339 29.0836 32.8557C29.6197 33.0349 29.8433 32.8041 29.897 32.7516C29.9506 32.6988 29.9929 32.6459 30.0234 32.5931C30.3472 32.0137 30.5695 31.5572 30.6892 31.224C31.4087 29.2629 31.9971 27.8292 32.4548 26.9231C32.4769 26.8769 32.5064 26.8164 32.5406 26.7455C32.4819 27.9938 32.4766 28.9899 32.5161 29.6589C32.6556 32.0007 33.5488 32.0231 33.9682 32.0639C34.3876 32.1044 34.6941 31.7896 34.8916 31.5475C35.089 31.3049 35.2369 30.9858 35.3355 30.5905C35.3992 30.3456 35.4857 29.9753 35.5953 29.48C35.7043 28.9852 35.8099 28.5484 35.9125 28.1697C36.0144 27.7914 36.1203 27.4298 36.2313 27.0846C36.3715 26.6441 36.7473 25.8985 37.3585 24.8479C37.556 24.4997 37.8953 24.399 38.3747 24.5475C38.4133 24.5589 38.4626 24.5649 38.5031 24.5756C39.335 24.879 40.3998 25.1051 41.3054 25.2078C41.5729 25.2396 41.8214 25.1419 42.0497 24.9138C42.1744 24.7833 42.28 24.6348 42.3903 24.4907C42.4349 24.4378 42.4795 24.3836 42.5244 24.3241C42.5439 24.2973 42.5674 24.2742 42.5865 24.2471C42.5851 24.2451 42.5848 24.2435 42.5834 24.2418C42.8007 23.9411 43.0247 23.5681 43.2567 23.1049C43.6201 22.38 43.9423 21.8682 44.2236 21.5702C44.1297 24.0923 44.058 31.1732 44.126 32.465C44.1522 33.0774 44.2813 33.7882 44.515 34.5974C44.6953 35.1897 45.1708 35.6132 45.9422 35.8671C46.3771 36.0136 45.9754 34.7496 45.9308 33.5173C45.8671 31.7595 45.8903 29.9546 45.8943 29.2107C45.9332 22.385 46.2262 19.0896 46.2688 18.633C46.3379 17.8904 46.4582 17.1994 46.8002 16.5679C47.0278 16.1236 47.292 15.5376 47.5925 14.8104C47.6726 14.6318 48.0602 13.6805 48.7545 11.9555C52.5354 10.6811 54.8253 9.90241 55.6243 9.61909C56.3103 9.3816 56.7552 9.21135 56.9607 9.10832C57.2789 8.96048 57.524 8.80327 57.696 8.63736C57.868 8.47212 57.8706 7.35224 56.2603 7.76734V7.76868ZM27.5601 28.0564C26.9932 29.016 26.1667 29.9984 25.0791 31.0052C25.0613 31.0093 24.844 31.2829 24.7555 31.0785C24.6409 30.7156 24.7247 30.2369 25.0066 29.6425C25.2521 29.1277 25.6309 28.5956 26.1432 28.046C26.6562 27.4967 27.1011 27.1442 27.479 26.9876C27.723 27.4098 27.7505 27.766 27.5604 28.0564H27.5601ZM48.1255 7.86735C48.0695 8.21723 47.4034 10.8815 47.1526 10.6232C46.9018 10.365 46.9548 9.55487 47.1097 8.76446C47.5921 6.30293 48.5222 3.36575 48.6429 3.79089C48.7636 4.21603 48.1728 7.62652 48.1255 7.86735Z" fill="#7E5F40"/>
<path d="M3.1146 52.0283V55.8837H2.4065V52.0283H1.65381V51.3911H3.87366V52.0283H3.11494H3.1146Z" fill="#7E5F40"/>
<path d="M7.34472 55.8853L6.75665 54.0426H6.35834V55.8853H5.6499V51.3931H6.78816C7.61059 51.3931 7.93916 51.7908 7.93916 52.718C7.93916 53.2729 7.82517 53.6706 7.41446 53.8917L8.08467 55.8856H7.34472V55.8853ZM6.7942 52.0299H6.358V53.4057H6.7942C7.17373 53.4057 7.23072 53.0903 7.23072 52.7177C7.23072 52.345 7.17373 52.0299 6.7942 52.0299Z" fill="#7E5F40"/>
<path d="M11.74 55.8853L11.5566 54.9956H10.5132L10.3358 55.8853H9.58984L10.6966 51.3931H11.3859L12.4799 55.8853H11.74ZM11.0382 52.4782L10.6523 54.358H11.4238L11.0379 52.4782H11.0382Z" fill="#7E5F40"/>
<path d="M15.1048 52.0283V55.8837H14.3967V52.0283H13.644V51.3911H15.8639V52.0283H15.1052H15.1048Z" fill="#7E5F40"/>
<path d="M18.8539 52.0283V55.8837H18.1458V52.0283H17.3931V51.3911H19.6129V52.0283H18.8542H18.8539Z" fill="#7E5F40"/>
<path d="M23.257 55.5564C23.0672 55.7708 22.8144 55.9347 22.3843 55.9347C21.9541 55.9347 21.7013 55.7708 21.5115 55.5564C21.1763 55.1778 21.1826 54.5215 21.1826 53.6384C21.1826 52.7554 21.1766 52.0988 21.5115 51.7201C21.7013 51.5057 21.9541 51.3418 22.3843 51.3418C22.8144 51.3418 23.0672 51.5057 23.257 51.7201C23.5922 52.0988 23.5859 52.755 23.5859 53.6384C23.5859 54.5218 23.5919 55.1778 23.257 55.5564ZM22.7259 52.1493C22.6625 52.0482 22.5549 51.9787 22.3843 51.9787C22.2136 51.9787 22.1123 52.0482 22.049 52.1493C21.9162 52.3637 21.8907 52.8179 21.8907 53.6384C21.8907 54.4589 21.9162 54.9128 22.049 55.1273C22.1123 55.2283 22.2136 55.2978 22.3843 55.2978C22.5549 55.2978 22.6625 55.2283 22.7259 55.1273C22.8587 54.9128 22.8778 54.4586 22.8778 53.6384C22.8778 52.8183 22.859 52.3637 22.7259 52.1493Z" fill="#7E5F40"/>
<path d="M27.1851 55.8853L26.597 54.0426H26.1987V55.8853H25.4902V51.3931H26.6285C27.4509 51.3931 27.7795 51.7908 27.7795 52.718C27.7795 53.2729 27.6655 53.6706 27.2548 53.8917L27.925 55.8856H27.1851V55.8853ZM26.6349 52.0299H26.1987V53.4057H26.6349C27.0144 53.4057 27.0714 53.0903 27.0714 52.7177C27.0714 52.345 27.0144 52.0299 26.6349 52.0299Z" fill="#7E5F40"/>
<path d="M29.7783 55.8853V51.3931H30.4868V55.8853H29.7783Z" fill="#7E5F40"/>
<path d="M34.3113 55.8853L34.1279 54.9956H33.0841L32.9071 55.8853H32.1611L33.2679 51.3931H33.9572L35.0512 55.8853H34.3113ZM33.6092 52.4782L33.2233 54.358H33.9948L33.6089 52.4782H33.6092Z" fill="#7E5F40"/>
<path d="M41.1914 55.8849L40.9446 55.4872C40.6979 55.7648 40.4323 55.935 40.021 55.935C39.4074 55.935 38.9648 55.4995 38.9648 54.7807C38.9648 54.2696 39.2052 53.8592 39.6351 53.4243C39.3444 53.033 39.1606 52.7303 39.1606 52.3513C39.1606 51.689 39.5593 51.3481 40.0585 51.3481C40.6721 51.3481 40.9695 51.7646 40.9695 52.2881C40.9695 52.8116 40.7485 53.1591 40.3938 53.525L40.9316 54.3516C41.0328 54.1371 41.0959 53.8217 41.115 53.525H41.6906C41.6719 54.0298 41.5072 54.5854 41.3047 54.9446L41.8931 55.8849H41.1911H41.1914ZM39.9643 53.9666C39.7048 54.2318 39.5911 54.484 39.5911 54.7362C39.5911 55.0895 39.7933 55.3356 40.078 55.3356C40.2805 55.3356 40.4515 55.2095 40.6157 54.9761L39.9643 53.9662V53.9666ZM40.0656 51.9472C39.8758 51.9472 39.7621 52.0924 39.7621 52.3259C39.7621 52.5215 39.8698 52.736 40.0588 52.9885C40.2614 52.7674 40.369 52.6032 40.369 52.3008C40.369 52.086 40.2359 51.9472 40.0656 51.9472Z" fill="#7E5F40"/>
<path d="M47.9535 55.601C47.7641 55.7967 47.4858 55.8853 47.0684 55.8853H45.9492V51.3931H47.0751C47.4922 51.3931 47.7644 51.481 47.9538 51.6707C48.1563 51.8784 48.2321 52.1751 48.2321 52.6173C48.2321 52.9197 48.2009 53.1722 47.9981 53.3739C47.9283 53.4438 47.8526 53.494 47.7641 53.5318C47.8586 53.5696 47.9411 53.6268 48.0041 53.6961C48.2257 53.9359 48.2445 54.2764 48.2445 54.5537C48.2445 55.0651 48.1687 55.3806 47.9535 55.6013V55.601ZM46.9926 52.0299H46.6573V53.2478H46.9926C47.3658 53.2478 47.5237 53.0645 47.5237 52.6357C47.5237 52.1815 47.3718 52.0299 46.9926 52.0299ZM46.9986 53.8469H46.6573V55.2478H46.9986C47.3845 55.2478 47.5364 55.0712 47.5364 54.5477C47.5364 54.0242 47.3782 53.8469 46.9986 53.8469Z" fill="#7E5F40"/>
<path d="M52.0075 55.8853L51.8241 54.9956H50.7804L50.6034 55.8853H49.8574L50.9642 51.3931H51.6535L52.7475 55.8853H52.0075ZM51.3055 52.4782L50.9196 54.358H51.691L51.3051 52.4782H51.3055Z" fill="#7E5F40"/>
<path d="M56.124 55.8853L55.5356 54.0426H55.1373V55.8853H54.4292V51.3931H55.5671C56.3896 51.3931 56.7185 51.7908 56.7185 52.718C56.7185 53.2729 56.6045 53.6706 56.1934 53.8917L56.8636 55.8856H56.1237L56.124 55.8853ZM55.5738 52.0299H55.1373V53.4057H55.5738C55.953 53.4057 56.01 53.0903 56.01 52.7177C56.01 52.345 55.9534 52.0299 55.5738 52.0299Z" fill="#7E5F40"/>
</g>
</svg>
