<svg width="60" height="44" viewBox="0 0 60 44" fill="none" xmlns="http://www.w3.org/2000/svg">
<path d="M0 18.7656L0.053372 18.6856C0.232853 18.7142 0.414261 18.7291 0.596013 18.73C0.780778 18.7307 0.965276 18.7158 1.14755 18.6855L1.20982 18.7656V24.2809L1.14755 24.3521C0.966823 24.3415 0.785631 24.3415 0.604908 24.3521C0.421199 24.3421 0.237083 24.3421 0.053372 24.3521L0 24.2809V18.7656Z" fill="#7E5F40"/>
<path d="M11.7306 18.6855L11.7929 18.7656L11.7039 19.7797H11.6505C11.3055 19.6698 10.9451 19.6157 10.5831 19.6196H10.0493V24.2809L9.97814 24.3521H9.41772H8.89287L8.8395 24.2809V19.6552H8.33244C7.95565 19.6493 7.58031 19.7034 7.22047 19.8153H7.1582L7.22047 18.8012L7.28274 18.7211C7.9855 18.7211 8.99961 18.7656 9.41772 18.7656C9.83581 18.7656 11.0189 18.7122 11.7306 18.6855Z" fill="#7E5F40"/>
<path d="M18.5176 18.6844C18.9251 18.6911 19.3325 18.6673 19.7364 18.6133L19.8253 18.6667L21.7379 24.2798V24.351H21.1953C21.0885 24.351 20.7594 24.351 20.6259 24.351L20.5103 24.2798L20.0477 22.9277C19.7986 22.9277 19.4072 22.9277 19.1581 22.9277H18.2686L17.9038 24.2798L17.8594 24.351H17.2722H16.7652L16.7207 24.2798L18.4376 18.7556L18.5176 18.6844ZM19.7897 22.0025L19.1136 19.832L18.5443 22.0025H19.7897Z" fill="#7E5F40"/>
<path d="M28.8622 23.3914H29.5738C30.0677 23.4324 30.5649 23.3842 31.0416 23.249L31.1217 23.3024L31.0149 24.2809L30.9615 24.3521C30.4278 24.3521 29.6984 24.3521 29.2358 24.3521H27.7146L27.6523 24.2809V18.7656L27.7146 18.6855C28.0778 18.733 28.4456 18.733 28.8088 18.6855L28.8622 18.7656V23.3914Z" fill="#7E5F40"/>
<path d="M37.1211 18.7656L37.1834 18.6855C37.5457 18.7448 37.9152 18.7448 38.2775 18.6855L38.3309 18.7656V24.2809L38.2775 24.3521C38.0968 24.3418 37.9156 24.3418 37.7349 24.3521C37.5512 24.3418 37.3671 24.3418 37.1834 24.3521L37.1211 24.2809V18.7656Z" fill="#7E5F40"/>
<path d="M46.0519 18.6844C46.4594 18.6911 46.8667 18.6673 47.2706 18.6133L47.3596 18.6667L49.2722 24.2798V24.351C49.1565 24.351 48.863 24.351 48.7206 24.351C48.5783 24.351 48.2936 24.351 48.1602 24.351L48.0357 24.2798L47.582 22.9277C47.3329 22.9277 46.9415 22.9277 46.6924 22.9277C46.4433 22.9277 46.0786 22.9277 45.8028 22.9277L45.4381 24.2798V24.351H44.851H44.344L44.2461 24.2798L45.963 18.7556L46.0519 18.6844ZM47.3685 22.0025L46.6479 19.832L46.0786 22.0025H47.3685Z" fill="#7E5F40"/>
<path d="M56.3884 20.7227V24.2809L56.335 24.3521C56.2105 24.3521 55.9259 24.3521 55.8191 24.3521C55.6413 24.343 55.4632 24.343 55.2854 24.3521L55.1875 24.2809V18.7656L55.2498 18.6856C55.4205 18.7125 55.5929 18.7274 55.7657 18.73C55.9178 18.7263 56.0695 18.7115 56.2194 18.6855L56.2995 18.7389L58.8792 22.2438V18.7656V18.6856C59.2356 18.7448 59.5993 18.7448 59.9556 18.6856L60.0001 18.7656V24.2809L59.9467 24.3521C59.7986 24.3436 59.6501 24.3436 59.5019 24.3521L59.066 24.3521L59.0482 24.2809L56.3884 20.7227Z" fill="#7E5F40"/>
<rect x="0.388672" y="6.24805" width="59.2988" height="3.75398" fill="#7E5F40"/>
<rect x="0.388672" y="33.709" width="59.2988" height="3.75398" fill="#7E5F40"/>
<path d="M27.9482 0.332031V0.385405L27.8859 1.06148C27.6553 0.991707 27.4151 0.958686 27.1742 0.963624L26.8184 0.963624V4.06822V4.11269H26.4448H26.0979V4.06822V0.990311H25.7598C25.5101 0.984193 25.261 1.01721 25.0215 1.08816V0.412093L25.066 0.358719H26.4804C26.7295 0.358719 27.4767 0.349823 27.9482 0.332031Z" fill="#7E5F40"/>
<path d="M28.6875 0.385405V0.332033C28.803 0.340521 28.919 0.340521 29.0344 0.332033C29.1618 0.341801 29.2896 0.341801 29.4169 0.332031V0.385405V1.80871H30.9203V0.385405V0.332033C31.0418 0.339903 31.1636 0.339903 31.285 0.332033C31.4035 0.340193 31.5224 0.340192 31.6409 0.332031V0.385405V4.06822V4.1127H31.2939H30.9203V4.06822V2.52037C30.609 2.52037 30.4311 2.52037 30.1642 2.52037C29.8973 2.52037 29.7016 2.52037 29.4169 2.52037V4.06822V4.1127H28.6875V4.06822V0.385405Z" fill="#7E5F40"/>
<path d="M34.9937 4.11269H33.8283H32.752V4.06822V0.385405V0.332031H33.7305H34.967V0.385405L34.9225 1.04369C34.6516 0.963186 34.3681 0.933036 34.0863 0.95473L33.5259 0.954728V1.8443H34.7713H34.8158L34.7713 2.4492C34.5221 2.43493 34.2722 2.44088 34.024 2.46699L33.5081 2.46699V3.4722H34.024C34.374 3.4973 34.7257 3.46424 35.0648 3.37435V4.03263L34.9937 4.11269Z" fill="#7E5F40"/>
<path d="M25.129 40.5851H25.0668C24.8168 40.3787 24.5013 40.2683 24.1772 40.2738C23.8125 40.2738 23.599 40.4339 23.599 40.6652C23.599 40.8965 23.768 41.0477 24.2751 41.1634C24.9867 41.3146 25.4404 41.5726 25.4404 42.3198C25.4404 43.067 25.0045 43.4851 24.0616 43.4851C23.5727 43.4871 23.0926 43.3548 22.6738 43.1026V43.0492L22.9051 42.4354H22.9674C23.272 42.7007 23.6579 42.8545 24.0616 42.8713C24.4174 42.8713 24.6042 42.6667 24.6042 42.4443C24.6042 42.2219 24.4263 42.0174 23.9014 41.9017C23.2254 41.7594 22.7895 41.4836 22.7895 40.8075C22.8113 40.4673 22.9727 40.1512 23.2354 39.934C23.4982 39.7167 23.8389 39.6176 24.1772 39.66C24.5814 39.654 24.979 39.7619 25.3247 39.9713L25.129 40.5851Z" fill="#7E5F40"/>
<path d="M26.2363 39.7398V39.6953H26.5921H26.9658V39.7398V41.1809H28.4691V39.7398L28.5136 39.6953H28.8783H29.2342L29.2787 39.7398V43.4315H29.2342C29.1188 43.4209 29.0027 43.4209 28.8872 43.4315C28.7629 43.422 28.638 43.422 28.5136 43.4315H28.4692V41.8837C28.1578 41.8837 27.9799 41.8837 27.713 41.8837C27.4462 41.8837 27.2504 41.8837 26.9658 41.8837V43.4404C26.8443 43.4324 26.7225 43.4324 26.6011 43.4404C26.4796 43.4321 26.3578 43.4321 26.2363 43.4404V39.7398Z" fill="#7E5F40"/>
<path d="M33.9506 41.6165C33.9506 42.6581 33.1063 43.5024 32.0647 43.5024C31.0232 43.5024 30.1788 42.6581 30.1788 41.6165C30.1403 41.0976 30.3253 40.5869 30.6873 40.213C31.0493 39.8392 31.5537 39.6377 32.0736 39.6595C32.5948 39.628 33.1034 39.8271 33.4648 40.2039C33.8261 40.5807 34.0038 41.0972 33.9506 41.6165ZM33.1144 41.6877C33.1144 40.727 32.6785 40.3266 32.038 40.3266C31.7474 40.3354 31.4732 40.4633 31.2797 40.6803C31.0862 40.8974 30.9905 41.1845 31.015 41.4742C31.015 42.3638 31.4598 42.8441 32.1092 42.8441C32.4069 42.8493 32.692 42.7245 32.8902 42.5024C33.0884 42.2803 33.18 41.9828 33.1411 41.6877H33.1144Z" fill="#7E5F40"/>
<path d="M37.4341 39.6953L37.4785 39.7398L37.4163 40.4248C37.1863 40.3512 36.946 40.3152 36.7046 40.318H36.3488V43.4048H35.9752H35.6282H35.5837V40.3447H35.2457C34.9955 40.3413 34.7464 40.3773 34.5074 40.4514H34.4629L34.5074 39.7665V39.722H35.9307L37.4341 39.6953Z" fill="#7E5F40"/>
</svg>
