<svg width="80" height="34" viewBox="0 0 80 34" fill="none" xmlns="http://www.w3.org/2000/svg">
<g clip-path="url(#clip0_84_1308)">
<path d="M15.2869 0.21731C13.951 0.21731 12.634 0.405457 11.3546 0.78175C9.18153 1.41204 7.25302 2.49389 5.57852 4.03669C3.8946 5.57949 2.59639 7.35748 1.68388 9.37065C1.05359 10.7253 0.602037 12.1364 0.319817 13.6134C0.0375968 15.0903 -0.0564765 16.5673 0.0375969 18.0442C0.13167 19.5212 0.395076 20.9887 0.83722 22.428C1.27937 23.8768 1.89084 25.2314 2.67165 26.4826C3.36779 27.6115 4.18623 28.6463 5.14578 29.5682C6.10533 30.4995 7.16836 31.2803 8.33487 31.9294C9.50138 32.5691 10.7243 33.0583 12.0131 33.3876C13.0197 33.6416 14.0263 33.7733 15.0517 33.7733C15.3433 33.7733 15.635 33.7639 15.9266 33.7451C17.3753 33.6792 18.7864 33.444 20.1693 33.0395C21.5522 32.635 22.841 32.0141 24.0357 31.1957C23.4054 30.6595 22.7281 30.1232 22.0037 29.587C21.1853 30.095 20.3292 30.5277 19.4355 30.904C18.5418 31.2803 17.6199 31.5532 16.6792 31.7037C16.2182 31.7507 15.7667 31.7789 15.3151 31.7789C14.365 31.7789 13.4336 31.666 12.5023 31.4403C11.1383 31.111 9.84945 30.5654 8.65472 29.8128C7.55406 29.0884 6.5757 28.223 5.71022 27.2164C4.84475 26.2098 4.12979 25.1185 3.56535 23.9332C3.00091 22.7573 2.57758 21.5155 2.31417 20.2079C2.05077 18.9003 1.95669 17.5927 2.05077 16.2662C2.11662 13.9708 2.67165 11.7695 3.72527 9.66228C4.77889 7.55503 6.24644 5.8429 8.13731 4.51646C9.04983 3.82973 10.0564 3.29351 11.1571 2.90781C12.2577 2.53151 13.3866 2.29633 14.5531 2.20226C14.7695 2.19285 14.9859 2.18344 15.2022 2.18344C16.1806 2.18344 17.1495 2.29633 18.1091 2.53151C19.285 2.81374 20.3951 3.25588 21.4393 3.85795C21.3734 3.48166 21.3076 3.10536 21.2229 2.71966C21.1477 2.34337 21.063 1.98589 20.9595 1.63782C20.9313 1.47789 20.7902 1.33678 20.5362 1.21449C19.1063 0.650047 17.5917 0.311383 16.0018 0.236125C15.7573 0.226717 15.5221 0.21731 15.2869 0.21731ZM23.4336 1.39323C23.2173 1.86359 22.9821 2.32455 22.7469 2.78551C22.5117 3.24647 22.2859 3.70743 22.0602 4.1778C21.9943 4.30009 21.9849 4.42239 22.0131 4.53528C22.0414 4.64817 22.0884 4.76105 22.1542 4.89276C22.4082 5.49483 22.634 6.07808 22.841 6.66134C23.0479 7.24459 23.2737 7.83725 23.5277 8.42991C23.5936 7.23518 23.603 6.05927 23.5559 4.89276C23.5089 3.72625 23.4713 2.56914 23.4431 1.40263M25.4844 18.3076C25.0893 18.7686 24.7224 19.2295 24.3744 19.6999C24.0263 19.54 23.7065 19.3895 23.4054 19.2295C23.1044 19.0696 22.8034 18.9097 22.4835 18.7592C22.7939 18.9191 23.1044 19.079 23.4054 19.2295C23.7065 19.3895 24.0263 19.54 24.3744 19.6999C24.7224 19.2295 25.0893 18.7686 25.4844 18.3076ZM15.6538 17.0094C16.2841 17.4798 16.9332 17.9407 17.6105 18.3735C18.2878 18.8156 18.9558 19.2578 19.6143 19.6905C19.9247 19.5306 20.2351 19.3801 20.5362 19.2201C20.8372 19.0602 21.1383 18.9003 21.4581 18.7498C21.1383 18.9097 20.8372 19.0696 20.5362 19.2201C20.2351 19.3801 19.9341 19.5306 19.6143 19.6905C18.9558 19.2484 18.2878 18.8062 17.6105 18.3735C16.9332 17.9313 16.2841 17.4798 15.6538 17.0094ZM22.2107 19.032C22.2389 20.7629 22.2483 22.4845 22.2389 24.1966C22.2201 25.9087 22.2295 27.6209 22.2577 29.3142C22.888 29.7846 23.5277 30.2926 24.1956 30.8194V20.0198C23.8476 19.8598 23.5183 19.7093 23.2079 19.5494C22.888 19.3895 22.5588 19.2201 22.2201 19.032" fill="#7E5F40"/>
<path d="M23.2455 0.828787C22.8975 0.922861 22.5776 1.01693 22.2766 1.11101C21.9755 1.20508 21.6557 1.29915 21.3076 1.39323C21.3735 1.79774 21.4487 2.19285 21.5428 2.56914C21.6369 2.94544 21.731 3.34055 21.825 3.74506C22.079 3.27469 22.3142 2.79492 22.5306 2.30574C22.7469 1.81656 22.9821 1.32738 23.2361 0.81938M15.334 2.60677C15.0141 2.60677 14.7037 2.61618 14.3838 2.6444C13.0668 2.75729 11.8062 3.07714 10.6115 3.61336C9.32267 4.14958 8.17498 4.88335 7.16839 5.83349C6.16181 6.77422 5.29633 7.84666 4.57197 9.04139C3.87582 10.1703 3.34901 11.3932 2.99153 12.7008C2.63405 14.0085 2.4365 15.3255 2.39887 16.6613C2.37065 17.9972 2.50235 19.3236 2.80339 20.65C3.10442 21.9671 3.56538 23.2183 4.19567 24.3754C5.13641 26.1722 6.44403 27.7055 8.10912 28.9755C9.77422 30.2549 11.6275 31.0263 13.6783 31.3086C14.2145 31.3932 14.7507 31.4309 15.2775 31.4309C16.143 31.4309 16.9991 31.318 17.8363 31.0922C19.191 30.7347 20.4421 30.1703 21.6087 29.4177C21.2982 29.2578 20.9878 29.0978 20.6867 28.9191C20.3857 28.7498 20.0659 28.5804 19.7178 28.4205C19.5579 28.4205 19.3979 28.4581 19.2192 28.5334C19.0499 28.6087 18.8805 28.6839 18.7206 28.7498C17.6764 29.2013 16.5757 29.4271 15.4186 29.4271C15.2117 29.4271 15.0047 29.4271 14.7977 29.4083C13.4149 29.3142 12.1261 28.9661 10.9313 28.3735C9.20038 27.4986 7.79868 26.238 6.70743 24.6011C5.62559 22.9643 4.90122 21.2051 4.56256 19.3142C4.37441 18.2418 4.32737 17.1411 4.42145 16.0122C4.51552 14.8834 4.73189 13.7921 5.07996 12.7291C5.42803 11.6754 5.88899 10.6783 6.47225 9.73754C7.0555 8.7968 7.77046 7.95955 8.61712 7.23518C9.52963 6.38852 10.5833 5.73001 11.778 5.25024C12.8975 4.80809 14.064 4.58231 15.2681 4.58231C15.3434 4.58231 15.428 4.58231 15.5033 4.58231C16.9802 4.61054 18.3819 4.97742 19.699 5.66416C21.0254 6.3603 22.1543 7.254 23.095 8.35466C22.9069 7.84666 22.7187 7.35748 22.5306 6.8683C22.3424 6.37912 22.1543 5.87112 21.9661 5.3349C21.8438 5.0809 21.7215 4.84572 21.6087 4.62935C21.4958 4.41298 21.317 4.23424 21.063 4.11195C20.6209 3.89558 20.1693 3.67921 19.7178 3.47225C19.2568 3.26529 18.777 3.10536 18.2785 2.97366C17.3001 2.71025 16.3123 2.57855 15.3151 2.57855M21.0442 16.5579C19.2756 16.5579 17.5071 16.5579 15.7479 16.5767C16.6322 16.8589 17.5071 17.1317 18.3913 17.4045C19.2756 17.6773 20.1693 17.9501 21.0818 18.2324C21.2982 18.2982 21.524 18.3641 21.7404 18.4487C21.825 18.477 21.9097 18.4958 21.9944 18.4958C22.1261 18.4958 22.2672 18.4581 22.3989 18.3829C23.0574 18.0724 23.7159 17.7714 24.3838 17.4892C25.0423 17.207 25.7008 16.9059 26.3688 16.5955C24.5908 16.5767 22.8222 16.5767 21.0536 16.5767M26.6416 16.9153C25.9172 17.1976 25.2211 17.4892 24.5437 17.7902C23.8664 18.0913 23.1797 18.4111 22.4929 18.7592C22.8034 18.9191 23.1138 19.079 23.4149 19.2295C23.7159 19.3895 24.0357 19.54 24.3838 19.6999C24.7319 19.2295 25.0988 18.7686 25.4939 18.3076C25.889 17.8561 26.2747 17.3857 26.651 16.9153M15.6538 17.0094C16.2841 17.4798 16.9332 17.9407 17.6105 18.3735C18.2879 18.8156 18.9558 19.2578 19.6143 19.6905C19.9247 19.5306 20.2352 19.3801 20.5362 19.2201C20.8373 19.0602 21.1383 18.9003 21.4581 18.7498C20.4798 18.4675 19.5202 18.1665 18.5607 17.8561C17.6011 17.5456 16.6322 17.254 15.6632 17.0094M21.8815 19.032C21.5334 19.1919 21.1853 19.3518 20.8467 19.5306C20.4986 19.6999 20.1505 19.8692 19.8119 20.0292V28.0536C20.1599 28.2135 20.4986 28.3735 20.8278 28.5522C21.1571 28.7215 21.4958 28.8909 21.8438 29.0508C21.8721 27.3857 21.8909 25.7206 21.8909 24.0743V19.0508" fill="#7E5F40"/>
<path d="M38.5794 0.584196C37.8551 0.866416 37.1495 1.16745 36.4628 1.47789C35.7761 1.78834 35.0987 2.11759 34.4214 2.46566C34.7318 2.62559 35.0235 2.78551 35.3151 2.93603C35.6067 3.09596 35.9078 3.25588 36.2088 3.4064C36.6133 2.93603 37.0084 2.46566 37.3847 1.9953C37.761 1.52493 38.1561 1.05456 38.5606 0.574789M30.4421 2.02352C30.8372 2.48448 31.2323 2.92662 31.6462 3.36877C31.9567 3.20884 32.2671 3.05833 32.5682 2.8984C32.8692 2.73848 33.189 2.58796 33.5371 2.42803C33.189 2.58796 32.8692 2.74788 32.5682 2.8984C32.2671 3.05833 31.9567 3.21825 31.6462 3.36877C31.2323 2.92662 30.8372 2.48448 30.4421 2.02352ZM34.1486 2.75729C34.1486 7.53622 34.1486 12.2963 34.1204 17.0282C34.1016 21.7601 34.1204 26.5202 34.1486 31.2992C34.4873 31.1392 34.8165 30.9793 35.1364 30.8006C35.4562 30.6312 35.7855 30.4619 36.1241 30.302V3.75447C35.7855 3.59454 35.4562 3.43462 35.1364 3.25588C34.8165 3.08655 34.4873 2.91722 34.1486 2.75729ZM36.2182 30.6877C35.9078 30.8476 35.6067 30.9981 35.3245 31.158C35.0329 31.318 34.7318 31.4685 34.4308 31.6284C35.1081 31.9388 35.7761 32.2493 36.444 32.5503C37.1119 32.8514 37.7892 33.143 38.4854 33.4252C38.1373 32.9548 37.7798 32.4939 37.4035 32.0329C37.0272 31.572 36.6321 31.1298 36.2276 30.6877" fill="#7E5F40"/>
<path d="M33.1326 0.226717C31.9661 0.226717 30.7996 0.254939 29.6143 0.301976C30.2445 0.584196 30.8654 0.857009 31.4769 1.12982C32.0884 1.39323 32.7093 1.67545 33.3396 1.95767C33.4995 2.02352 33.65 2.07996 33.8099 2.127C33.8758 2.14581 33.9416 2.15522 34.0075 2.15522C34.0921 2.15522 34.1862 2.13641 34.2803 2.09878C34.967 1.78833 35.6538 1.47789 36.3311 1.17686C37.0084 0.875823 37.6763 0.574788 38.3349 0.254939C36.8861 0.254939 35.4374 0.254939 33.9981 0.236124C33.7064 0.236124 33.4242 0.236124 33.1326 0.236124M29.332 0.64064C29.6801 1.11101 30.047 1.57197 30.4421 2.03293C30.8372 2.49389 31.2323 2.93603 31.6462 3.37818C31.9567 3.21825 32.2671 3.06773 32.5682 2.90781C32.8692 2.74788 33.189 2.59737 33.5371 2.43744C32.8127 2.15522 32.1166 1.85419 31.4393 1.54374C30.7619 1.2333 30.0658 0.932267 29.3414 0.650047M33.7629 2.75729L31.7779 3.74506V30.3584C32.126 30.5183 32.4553 30.6689 32.7657 30.8288C33.0856 30.9887 33.4054 31.1392 33.7535 31.2992V2.75729H33.7629ZM31.6462 30.6406C31.2699 31.111 30.8842 31.572 30.4891 32.0329C30.094 32.4939 29.7271 32.9548 29.3791 33.4252C30.0658 33.143 30.7619 32.8514 31.4581 32.5503C32.1448 32.2493 32.841 31.9294 33.5371 31.5814C33.189 31.4214 32.8692 31.2709 32.5682 31.111C32.2671 30.9511 31.9661 30.8006 31.6462 30.6406ZM33.951 31.8542C33.8758 31.8542 33.8005 31.873 33.7159 31.9106C33.5277 32.0047 33.349 32.08 33.1984 32.1458C32.5964 32.428 32.0037 32.6914 31.4016 32.9454C30.7996 33.1994 30.2069 33.4628 29.6048 33.7451C31.0348 33.7639 32.4741 33.7639 33.9228 33.7639C35.3715 33.7639 36.8203 33.7639 38.2878 33.7451C37.5917 33.4346 36.9143 33.1242 36.2558 32.8231C35.5973 32.5221 34.92 32.2305 34.2238 31.9483C34.1298 31.873 34.0357 31.8448 33.9416 31.8448" fill="#7E5F40"/>
<path d="M56.9427 0.217309C55.6068 0.217309 54.2992 0.405456 53.0104 0.781749C50.8373 1.41204 48.9182 2.49388 47.2343 4.03669C45.5504 5.57949 44.2522 7.35748 43.3396 9.37065C42.7094 10.7253 42.2578 12.1364 41.9756 13.6134C41.6934 15.0903 41.5993 16.5673 41.6934 18.0442C41.7874 19.5212 42.0508 20.9887 42.493 22.428C42.9351 23.8768 43.5466 25.2314 44.3274 26.4826C45.0236 27.6115 45.842 28.6463 46.8015 29.5682C47.7611 30.4995 48.8241 31.2803 49.9906 31.9294C51.1571 32.5691 52.3801 33.0583 53.6689 33.3876C54.6755 33.6416 55.6821 33.7733 56.7075 33.7733C56.9991 33.7733 57.2907 33.7639 57.5823 33.7451C59.0311 33.6792 60.4422 33.444 61.8251 33.0395C63.2079 32.635 64.4967 32.0141 65.6915 31.1957C65.0612 30.6595 64.3839 30.1232 63.6595 29.587C62.8411 30.095 61.985 30.5278 61.0913 30.904C60.1976 31.2803 59.2757 31.5532 58.3349 31.7037C57.874 31.7507 57.4224 31.7789 56.9709 31.7789C56.0207 31.7789 55.0894 31.666 54.1581 31.4403C52.7846 31.111 51.5052 30.5654 50.3105 29.8128C49.2098 29.0884 48.2315 28.223 47.366 27.2164C46.5005 26.2098 45.7856 25.1185 45.2211 23.9332C44.6567 22.7573 44.2427 21.5155 43.9699 20.2079C43.7065 18.9003 43.6125 17.5927 43.7065 16.2662C43.7724 13.9708 44.3274 11.7695 45.381 9.66228C46.4347 7.55503 47.9022 5.8429 49.7931 4.51646C50.7056 3.82973 51.7122 3.29351 52.8128 2.90781C53.9135 2.53151 55.0424 2.29633 56.2089 2.20226C56.4252 2.19285 56.6416 2.18344 56.858 2.18344C57.8363 2.18344 58.8053 2.29633 59.7649 2.53151C60.9502 2.81373 62.0508 3.25588 63.0951 3.85795C63.0292 3.48166 62.9633 3.10536 62.8787 2.71966C62.8034 2.34337 62.7188 1.98589 62.6247 1.63782C62.5965 1.47789 62.4554 1.33678 62.2014 1.21449C60.7526 0.621825 59.238 0.283161 57.6482 0.198495C57.4036 0.189087 57.1684 0.17968 56.9332 0.17968M65.0894 1.39323C64.873 1.86359 64.6379 2.32455 64.4027 2.78551C64.1675 3.24647 63.9417 3.70743 63.7159 4.1778C63.6501 4.30009 63.6407 4.42239 63.6689 4.53528C63.6971 4.64817 63.7442 4.76105 63.81 4.89276C64.064 5.49483 64.2898 6.07808 64.4967 6.66133C64.7037 7.24459 64.9295 7.83725 65.1835 8.42991C65.2493 7.23518 65.2587 6.05927 65.2117 4.89276C65.1647 3.72625 65.127 2.56914 65.0988 1.40263M67.1402 18.3076C66.7451 18.7686 66.3782 19.2295 66.0301 19.6999C65.6821 19.54 65.3622 19.3895 65.0612 19.2295C64.7602 19.0696 64.4591 18.9097 64.1393 18.7592C64.4497 18.9191 64.7602 19.079 65.0612 19.2295C65.3622 19.3895 65.6821 19.54 66.0301 19.6999C66.3782 19.2295 66.7451 18.7686 67.1402 18.3076ZM57.3095 17.0094C57.9398 17.4798 58.5889 17.9407 59.2663 18.3735C59.9436 18.8156 60.6115 19.2578 61.27 19.6905C61.5805 19.5306 61.8909 19.3801 62.1919 19.2201C62.493 19.0602 62.794 18.9003 63.1139 18.7498C62.8034 18.9097 62.493 19.0696 62.1919 19.2201C61.8909 19.3801 61.5899 19.5306 61.27 19.6905C60.6115 19.2484 59.9436 18.8062 59.2663 18.3735C58.5889 17.9313 57.9398 17.4798 57.3095 17.0094ZM63.8665 19.032C63.8947 20.7629 63.9041 22.4845 63.8947 24.1966C63.8759 25.9087 63.8947 27.6209 63.9135 29.3142C64.5438 29.7846 65.1835 30.2926 65.8514 30.8194V20.0198C65.5033 19.8598 65.1741 19.7093 64.8636 19.5494C64.5438 19.3895 64.2145 19.2201 63.8759 19.032" fill="#7E5F40"/>
<path d="M64.9012 0.828787C64.5531 0.922861 64.2333 1.01693 63.9322 1.11101C63.6312 1.20508 63.3113 1.29915 62.9633 1.39323C63.0291 1.79774 63.1044 2.19285 63.1984 2.56914C63.2925 2.94544 63.3866 3.34055 63.4807 3.74506C63.7347 3.27469 63.9699 2.79492 64.1862 2.30574C64.4026 1.81656 64.6378 1.32738 64.8918 0.81938M56.9896 2.60677C56.6698 2.60677 56.3593 2.61618 56.0395 2.6444C54.7224 2.75729 53.4619 3.07714 52.2671 3.61336C50.9783 4.14958 49.8306 4.88335 48.824 5.83349C47.8175 6.77422 46.952 7.84666 46.2276 9.04139C45.5315 10.1703 45.0047 11.3932 44.6472 12.7008C44.2897 14.0085 44.0921 15.3255 44.0545 16.6613C44.0263 17.9972 44.158 19.3236 44.4496 20.65C44.7507 21.9671 45.2116 23.2183 45.8419 24.3754C46.7826 26.1722 48.0903 27.7055 49.7554 28.9755C51.4205 30.2549 53.2737 31.0263 55.3245 31.3086C55.8607 31.3932 56.3875 31.4309 56.9143 31.4309C57.7798 31.4309 58.6359 31.318 59.4731 31.0922C60.8278 30.7347 62.079 30.1703 63.2455 29.4177C62.935 29.2578 62.6246 29.0978 62.3236 28.9191C62.0225 28.7498 61.7027 28.5804 61.3546 28.4205C61.1947 28.4205 61.0348 28.4581 60.856 28.5334C60.6867 28.6087 60.5174 28.6839 60.3574 28.7498C59.3132 29.2013 58.2126 29.4271 57.0555 29.4271C56.8485 29.4271 56.6415 29.4271 56.4346 29.4083C55.0517 29.3142 53.7629 28.9661 52.5682 28.3735C50.8372 27.4986 49.4355 26.238 48.3443 24.6011C47.2624 22.9643 46.5475 21.2051 46.1994 19.3142C46.0112 18.2418 45.9642 17.1411 46.0583 16.0122C46.1524 14.8834 46.3687 13.7921 46.7168 12.7291C47.0649 11.6754 47.5258 10.6783 48.1091 9.73754C48.6923 8.7968 49.4073 7.95955 50.2539 7.23518C51.1665 6.38852 52.2201 5.73001 53.4148 5.25024C54.5343 4.80809 55.7008 4.58231 56.9049 4.58231C56.9802 4.58231 57.0649 4.58231 57.1401 4.58231C58.6171 4.61054 60.0188 4.97742 61.3358 5.66416C62.6622 6.3603 63.7911 7.254 64.7318 8.35466C64.5437 7.84666 64.3555 7.35748 64.1674 6.8683C63.9793 6.37912 63.7911 5.87112 63.603 5.3349C63.4807 5.0809 63.3584 4.84572 63.2455 4.62935C63.1326 4.41298 62.9539 4.23424 62.6999 4.11195C62.2577 3.89558 61.8062 3.67921 61.3546 3.47225C60.8937 3.26529 60.4139 3.10536 59.9153 2.97366C58.9369 2.71025 57.9492 2.57855 56.952 2.57855M62.6999 16.5579C60.9313 16.5579 59.1627 16.5579 57.4035 16.5767C58.2784 16.8589 59.1627 17.1317 60.047 17.4045C60.9219 17.6773 61.825 17.9501 62.7375 18.2324C62.9539 18.2982 63.1796 18.3641 63.396 18.4487C63.4807 18.477 63.5653 18.4958 63.65 18.4958C63.7817 18.4958 63.9228 18.4581 64.0545 18.3829C64.713 18.0724 65.3715 17.7714 66.0395 17.4892C66.698 17.207 67.3565 16.9059 68.0244 16.5955C66.2464 16.5767 64.4778 16.5767 62.7093 16.5767M68.2972 16.9153C67.5729 17.1976 66.8767 17.4892 66.1994 17.7902C65.5221 18.0913 64.8353 18.4111 64.1486 18.7592C64.459 18.9191 64.7695 19.079 65.0705 19.2295C65.3715 19.3895 65.6914 19.54 66.0395 19.6999C66.3875 19.2295 66.7544 18.7686 67.1495 18.3076C67.5446 17.8561 67.9303 17.3857 68.3066 16.9153M57.3095 17.0094C57.9397 17.4798 58.5889 17.9407 59.2662 18.3735C59.9435 18.8156 60.6114 19.2578 61.2699 19.6905C61.5804 19.5306 61.8908 19.3801 62.1919 19.2201C62.4929 19.0602 62.7939 18.9003 63.1138 18.7498C62.1354 18.4675 61.1665 18.1665 60.2069 17.8561C59.2474 17.5456 58.2784 17.254 57.3095 17.0094ZM63.5371 19.032C63.189 19.1919 62.8504 19.3518 62.5023 19.5306C62.1542 19.6999 61.8062 19.8692 61.4675 20.0292V28.0536C61.8156 28.2135 62.1542 28.3735 62.4835 28.5522C62.8127 28.7215 63.1514 28.8909 63.4995 29.0508C63.5277 27.3857 63.5465 25.7206 63.5465 24.0743V19.0508" fill="#7E5F40"/>
<path d="M80 0.584197C79.2756 0.866417 78.5701 1.16745 77.8927 1.47789C77.206 1.79774 76.5287 2.127 75.8513 2.46566C76.1618 2.62559 76.4534 2.77611 76.745 2.93603C77.0367 3.09596 77.3377 3.24647 77.6387 3.4064C78.0432 2.93603 78.4384 2.46566 78.8146 1.98589C79.1909 1.51552 79.5861 1.04516 79.9906 0.565382M75.5691 2.75729C75.5691 7.53622 75.5691 12.2963 75.5409 17.0282C75.5221 21.7601 75.5409 26.5202 75.5691 31.2992C75.9078 31.1392 76.237 30.9793 76.5569 30.8006C76.8767 30.6312 77.206 30.4619 77.5447 30.302V3.75447C77.206 3.59454 76.8767 3.43462 76.5569 3.25588C76.237 3.08655 75.9078 2.91722 75.5691 2.75729Z" fill="#7E5F40"/>
<path d="M74.5531 0.226717C73.3866 0.226717 72.2201 0.254939 71.0348 0.301976C71.6651 0.584196 72.286 0.857009 72.8974 1.12982C73.5089 1.39323 74.1298 1.67545 74.7601 1.95767C74.92 2.02352 75.0705 2.07996 75.2305 2.127C75.2963 2.14581 75.3622 2.15522 75.428 2.15522C75.5127 2.15522 75.6068 2.13641 75.7008 2.09878C76.3876 1.78833 77.0743 1.47789 77.7516 1.17686C78.429 0.875823 79.0969 0.574788 79.7554 0.254939C78.3067 0.254939 76.8579 0.254939 75.4186 0.236124C75.127 0.236124 74.8448 0.236124 74.5531 0.236124M70.7526 0.64064C71.1006 1.11101 71.4675 1.57197 71.8626 2.03293C72.2577 2.49389 72.6528 2.93603 73.0668 3.37818C73.3772 3.21825 73.6877 3.06773 73.9887 2.90781C74.2897 2.74788 74.6096 2.59737 74.9576 2.43744C74.2333 2.15522 73.5371 1.85419 72.8598 1.54374C72.1825 1.2333 71.4863 0.932267 70.762 0.650047M75.1928 2.75729L73.2079 3.74506V30.3584C73.556 30.5183 73.8852 30.6689 74.1957 30.8288C74.5061 30.9887 74.8353 31.1392 75.1834 31.2992V2.75729H75.1928ZM73.0668 30.6406C72.6905 31.111 72.3048 31.572 71.9097 32.0329C71.5146 32.4939 71.1477 32.9548 70.7996 33.4252C71.4863 33.143 72.1825 32.8514 72.8786 32.5503C73.5748 32.2493 74.2615 31.9294 74.9576 31.5814C74.6096 31.4214 74.2897 31.2709 73.9887 31.111C73.6877 30.9511 73.3866 30.8006 73.0668 30.6406ZM77.6387 30.6877C77.3283 30.8476 77.0367 30.9981 76.745 31.158C76.4534 31.318 76.1524 31.4685 75.8513 31.6284C76.5287 31.9483 77.1966 32.2493 77.8645 32.5503C78.5324 32.8514 79.2098 33.143 79.9059 33.4252C79.5578 32.9548 79.2004 32.4939 78.8241 32.0329C78.4478 31.572 78.0527 31.1298 77.6481 30.6877M75.3716 31.8542C75.2963 31.8542 75.2211 31.873 75.1364 31.9106C74.9482 32.0047 74.7695 32.08 74.619 32.1458C74.0169 32.428 73.4243 32.6914 72.8222 32.9454C72.2201 33.1994 71.6274 33.4628 71.0254 33.7451C72.4553 33.7639 73.8946 33.7639 75.3433 33.7639C76.7921 33.7639 78.2502 33.7639 79.7084 33.7451C79.0122 33.4346 78.3349 33.1242 77.6764 32.8231C77.0179 32.5221 76.3405 32.2305 75.6444 31.9483C75.5503 31.873 75.4562 31.8448 75.3622 31.8448" fill="#7E5F40"/>
</g>
<defs>
<clipPath id="clip0_84_1308">
<rect width="80" height="33.5654" fill="white" transform="translate(0 0.21731)"/>
</clipPath>
</defs>
</svg>
