<?xml version="1.0" encoding="UTF-8"?>
<svg id="Ebene_1" xmlns="http://www.w3.org/2000/svg" version="1.1" viewBox="0 0 130 62">
  <!-- Generator: Adobe Illustrator 29.5.0, SVG Export Plug-In . SVG Version: 2.1.0 Build 137)  -->
  <defs>
    <style>
      .st0 {
        fill: #7e5f40;
      }
    </style>
  </defs>
  <path id="TheBellezzasGroup_Logo_White" class="st0" d="M49.4,59.4h.8v.7c0,.7-.2,1-.6,1s-.6-.3-.6-.7v-3.5c0-.6.2-.8.5-.8.5,0,.7.3.7,1.3h1.1v-.4c0-.9-.6-1.8-1.5-1.9,0,0-.2,0-.2,0-.9,0-1.7.6-1.7,1.5,0,0,0,.2,0,.3v3.5c-.1.9.5,1.7,1.4,1.8,0,0,.1,0,.2,0,.5,0,.9-.2,1.2-.6l.2.5h.6v-3.5h-1.9v.9ZM59.1,57.1c0-1.5-.7-2-2-2h-1.7v6.9h1.2v-2.8c.2,0,.4,0,.6,0l.8,2.9h1.2l-1-3.1c.4-.2.8-.6.8-1.7h0ZM57,58.1h-.4v-2.1h.4c.6,0,.9.2.9,1.1s-.2,1.1-.9,1.1h0ZM64.9,54.9c-.9,0-1.7.6-1.8,1.5,0,0,0,.2,0,.3v3.5c0,1,.9,1.8,1.9,1.8,1,0,1.7-.8,1.8-1.8v-3.5c0-.9-.6-1.7-1.5-1.8,0,0-.2,0-.3,0h0ZM65.5,60.2c0,.5-.2.8-.6.8s-.6-.2-.6-.8v-3.5c0-.5.2-.8.6-.8s.6.2.6.8v3.5ZM73.1,60.2c0,.5-.2.8-.6.8s-.6-.2-.6-.8v-5.2h-1.2v5.2c0,1,.8,1.8,1.8,1.9s1.8-.8,1.9-1.8c0,0,0,0,0,0v-5.2h-1.2v5.2ZM80,55h-1.7v6.9h1.2v-2.8h.5c1.5,0,2.1-.6,2.1-2s-.7-2-2.1-2h0ZM80,58.1h-.5v-2.1h.5c.8,0,1,.2,1,1.1s-.2,1.1-1,1.1h0ZM56,1h1.1v5.9h1.2V1h1.1V0h-3.5v1ZM64.2,3.8h1.3v3.1h1.2V0h-1.2v2.8h-1.3V0h-1.2v6.9h1.2v-3ZM74,5.9h-2.1v-2h1.5v-1h-1.5v-1.8h2V0h-3.2v6.9h3.3v-1ZM17.8,14.6h8.1v-1.3h-8.1v1.3ZM37,13.3h-1.3v33.4h7.4v-1.3h-6.1V13.3ZM20.1,23h4.5v-1.3h-3.1v-4.9h4.5v-1.3h-5.9v7.5ZM6.1,21.4c.4-.4.7-1,.7-1.6v-2.1c0-1.2-1-2.2-2.2-2.2,0,0,0,0,0,0h-2.3v6.5h2.2c.6,0,1.2-.2,1.6-.6h0ZM3.6,16.8h.9c.4,0,.8.2.9.7,0,0,0,.1,0,.2v2.1c0,.4-.2.8-.7.9,0,0-.1,0-.2,0h-.9v-3.8ZM21.4,25.3h3.1v-1.3h-4.5v20.5h5.2v-1.3h-3.8v-17.8ZM2.2,44.4h2.2c1.2,0,2.2-1,2.2-2.2,0,0,0,0,0,0v-17c0-.6-.2-1.2-.7-1.6-.4-.4-1-.6-1.6-.6h-2.2v21.4ZM3.6,24.3h.9c.4,0,.8.2.9.7,0,0,0,.1,0,.2v17c0,.4-.2.8-.7.9,0,0-.1,0-.2,0h-.9v-18.7ZM4.5,13.2H0v31.1h1.3V14.6h3.1c1.7,0,3.1,1.4,3.1,3.1,0,0,0,0,0,0v2.1c0,1.1-.5,2.1-1.5,2.7.9.6,1.5,1.6,1.5,2.7v17c0,1.7-1.4,3.1-3.1,3.1,0,0,0,0,0,0H0v1.3h4.5c1.2,0,2.4-.5,3.2-1.3.9-.8,1.3-2,1.3-3.2v-17c0-1-.3-1.9-.9-2.7.6-.8.9-1.7.9-2.7v-2.1c0-1.2-.5-2.3-1.3-3.2-.8-.8-2-1.3-3.2-1.3h0ZM59.2,43.1h-3.8V13.2h-1.3v31.1h5.2v-1.3ZM19.2,23.9h-1.4v22.7h7.4v-1.3h-6.1v-21.4ZM19.2,15.5h-1.4v7.5h1.3v-7.5ZM69.4,15.5h-1.3v7.5h1.3v-7.5ZM128.7,14.6c-1.8-1.8-4.6-1.7-6.4,0-.8.8-1.3,2-1.3,3.1v17.9h-.9v1.3h2.3v-19.2c0-1.7,1.3-3.2,3-3.2,1.7,0,3.2,1.3,3.2,3,0,0,0,.1,0,.2v28.9h1.3v-28.9c0-1.2-.4-2.4-1.3-3.2h0ZM120,39.2h.9v7.4h1.4v-8.8h-2.3v1.4ZM39.2,13.2h-1.3v31.1h5.1v-1.3h-3.8V13.2ZM109.4,15.5h-5v1.3h3.4l-4.4,29.8h7.8v-1.3h-6.1l4.4-29.8ZM86.9,13.2v1.3h6.1l-4.4,29.8h5v-1.3h-3.4l4.4-29.8h-7.7ZM123.3,46.6h1.3v-7.4h1.8v7.4h1.3v-8.8h-4.5v8.8ZM125.5,15.5c-1.2,0-2.2,1-2.2,2.2,0,0,0,0,0,0v19.2h4.5v-19.2c0-1.2-1-2.2-2.2-2.2,0,0,0,0,0,0h0ZM126.4,35.6h-1.8v-17.8c0-.4.3-.8.7-.9,0,0,.1,0,.2,0,.4,0,.8.2.9.7,0,0,0,.1,0,.2v17.8ZM104.4,13.2v1.3h6.1l-4.4,29.8h5.1v-1.3h-3.4l4.4-29.8h-7.7ZM69.4,23.9h-1.3v22.7h7.4v-1.3h-6.1v-21.4ZM91.9,15.5h-5v1.3h3.4l-4.4,29.8h7.8v-1.3h-6.1l4.4-29.8ZM71.6,25.3h3.1v-1.3h-4.5v20.5h5.2v-1.3h-3.8v-17.8ZM59.2,45.3h-6.1V13.2h-1.3v33.4h7.4v-1.3ZM68,14.6h8.1v-1.3h-8.1v1.3ZM70.3,23h4.5v-1.3h-3.1v-4.9h4.5v-1.3h-5.9v7.6Z"/>
</svg>