<svg width="214" height="226" viewBox="0 0 214 226" fill="none" xmlns="http://www.w3.org/2000/svg">
<path d="M139.267 92.5771C139.613 94.1212 139.767 95.7019 139.727 97.2836C139.692 98.6759 139.557 100.064 139.322 101.437C138.979 103.357 138.452 105.241 137.748 107.061C137.405 107.822 137.155 108.621 137.003 109.442C137.047 109.577 136.878 109.782 137.142 109.867C137.947 110.515 138.715 111.208 139.442 111.944C139.877 112.294 140.214 112.741 140.655 113.111C140.875 113.269 141.022 113.508 141.065 113.776C141.107 114.043 141.042 114.316 140.883 114.535C140.466 115.162 140.139 115.867 139.754 116.527C139.288 117.21 138.87 117.925 138.503 118.666C138.319 119.016 138.084 119.337 137.807 119.619C137.275 120.285 136.819 120.989 136.338 121.68C135.856 122.371 135.182 123.125 134.719 123.939C134.518 124.25 134.281 124.536 134.011 124.789C133.323 125.504 132.802 126.337 132.109 127.033L130.035 128.947C129.316 129.63 128.622 130.326 127.878 130.996C127.489 131.365 127.067 131.696 126.615 131.984C126.433 132.08 126.308 132.258 126.277 132.462C126.246 132.666 126.314 132.872 126.46 133.018C127.455 134.171 128.514 135.26 129.477 136.445C130 137.066 130.522 137.688 131.026 138.316C131.301 138.672 131.597 139.011 131.912 139.332C132.318 139.697 132.902 139.785 133.397 139.556C133.98 139.322 134.605 139.206 135.233 139.216C136.185 139.313 137.138 139.089 138.122 139.219C138.849 139.332 139.584 139.394 140.321 139.403C140.931 139.436 141.536 139.534 142.126 139.693L144.265 140.153C145.296 140.399 146.285 140.799 147.196 141.34C148.114 141.848 148.932 142.517 149.613 143.314C150.583 144.231 151.291 145.388 151.666 146.669C151.91 148.025 151.763 149.423 151.243 150.699C150.274 152.904 148.127 154.358 145.72 154.44C143.781 154.67 141.818 154.586 139.906 154.19C138.514 153.945 137.143 153.597 135.803 153.149C135.646 153.088 135.482 153.047 135.315 153.03C134.948 153.02 134.69 153.083 134.706 153.591C134.805 155.12 134.153 156.601 132.958 157.56C131.291 158.867 129.011 159.071 127.138 158.082C126.439 157.775 126.316 157.857 125.977 158.46C125.469 159.528 124.586 160.371 123.495 160.828L122.953 161.004C121.071 161.855 118.849 161.16 117.786 159.388C117.392 158.832 117.096 158.842 116.788 159.477C115.904 161.328 114.673 162.992 113.161 164.378C111.717 165.649 110.177 166.808 108.554 167.843C107.65 168.456 106.628 168.875 105.553 169.074C104.714 169.128 103.872 169.032 103.066 168.792C102.738 168.701 102.417 168.592 102.103 168.463C100.684 167.967 99.7079 166.658 99.6384 165.156C99.5391 164.467 99.4778 163.773 99.4547 163.077C99.5586 161.645 99.8152 160.227 100.22 158.849C100.44 157.724 100.858 156.647 101.454 155.668C101.899 154.855 102.467 154.115 103.137 153.474C103.493 153.116 103.827 152.736 104.136 152.336C104.36 152.117 104.57 151.884 104.766 151.64C105.228 150.955 106.06 150.684 106.496 149.987C106.554 149.95 106.621 149.929 106.689 149.924C107.579 149.634 108.158 148.848 109.01 148.507C109.862 148.166 109.801 147.715 109.844 147.059C109.926 145.599 110.04 144.107 110.212 142.661C110.336 141.658 110.369 140.642 110.486 139.62C110.542 139.132 110.247 138.885 109.739 138.965C109.44 139.03 109.148 139.124 108.868 139.248C107.726 139.447 106.569 139.544 105.411 139.537C104.708 139.673 103.987 139.683 103.281 139.565C102.421 139.353 101.542 139.81 100.735 139.366C99.8814 139.471 99.0164 139.434 98.1751 139.256C97.434 139.3 96.6906 139.231 95.9699 139.053C95.4533 138.922 94.9218 138.857 94.3887 138.861C93.6815 138.791 92.9811 138.677 92.287 138.581C91.077 138.418 89.8826 138.155 88.7159 137.795C88.1494 137.616 87.5695 137.483 86.9819 137.396C86.4141 137.324 85.8576 137.181 85.3252 136.971C84.857 136.781 84.3293 136.803 83.8161 136.606C83.2149 136.352 82.5919 136.154 81.9548 136.013C81.2156 135.774 80.4897 135.496 79.7802 135.179C79.3829 135.031 79.0079 134.829 78.6653 134.579C78.3518 134.339 78.4544 133.535 78.7225 132.977C78.9905 132.42 79.2798 131.598 79.5488 130.912C79.8178 130.226 80.154 129.154 80.5207 128.307C80.8874 127.461 81.1642 126.601 81.4603 125.735C81.496 125.67 81.5163 125.597 81.5198 125.523C81.573 125.292 81.9474 125.127 81.7564 124.868C81.5037 124.587 81.1778 124.382 80.8151 124.276C80.0194 124 79.1913 123.755 78.3962 123.415C77.601 123.074 77.5618 123.151 77.1323 122.948C76.1257 122.484 75.0084 122.205 74.0076 121.824C73.0069 121.444 71.801 120.958 70.7045 120.48C69.8164 120.036 68.8941 119.663 67.9465 119.366C67.1713 119.153 66.4123 118.884 65.6751 118.564C64.5901 118.17 63.5282 117.715 62.4944 117.201C62.1579 117.052 61.8104 116.929 61.4549 116.833C60.2747 116.361 59.1729 115.735 57.9661 115.378C56.636 114.899 55.3418 114.326 54.0932 113.663C53.0929 113.218 52.0801 112.734 51.0667 112.315L48.0969 111.141C47.3786 110.839 46.5752 110.737 45.9948 110.07C45.4144 109.403 45.218 108.996 45.7918 107.997C46.3655 106.997 46.4396 106.567 46.7603 105.842C46.8266 105.585 47.304 105.409 47.0675 105.208C46.7731 104.953 46.4212 104.774 46.0421 104.685C45.3771 104.487 44.6989 104.335 44.0125 104.232C43.3172 104.103 42.6157 104.01 41.9108 103.953C41.153 103.938 40.3997 103.831 39.6679 103.633C39.0062 103.506 38.4234 103.16 37.6108 103.425C35.8307 104.003 34.0506 104.581 32.2705 105.16C31.3601 105.289 30.4459 104.951 29.839 104.26C28.9782 103.144 28.7558 101.663 29.2511 100.344C29.4118 99.8942 29.6877 99.4947 30.0513 99.1853C30.4828 98.7309 30.9909 98.3558 31.5523 98.0772C31.6291 98.0582 31.6946 98.008 31.733 97.9387C31.7714 97.8694 31.7791 97.7873 31.7545 97.712C31.7042 97.5573 31.679 97.4799 31.4667 97.4847C30.6899 97.2665 29.8676 97.1058 29.1106 96.817C28.3281 96.5702 27.6899 95.9979 27.3597 95.2468C26.8591 94.0334 27.0543 92.6441 27.8698 91.6156C28.2573 90.5696 29.2998 89.9149 30.4104 90.0201C30.5572 90.0636 30.7132 90.0648 30.8607 90.0235C31.9914 89.7684 33.1465 89.6369 34.3057 89.6315C34.77 89.4806 35.0022 89.4052 34.9292 88.8513C34.8614 87.7945 35.1162 86.7419 35.6598 85.8331C36.1663 84.9747 36.8684 84.2482 37.7089 83.7127C39.0334 82.9455 40.4495 82.3489 41.9236 81.9368C42.1713 81.835 42.4495 81.8371 42.6956 81.9427C42.8714 81.9921 43.0528 82.0194 43.2354 82.024C44.1475 81.9771 45.058 82.1426 45.8952 82.5074C46.073 82.5863 46.2759 82.5867 46.454 82.5085C46.6321 82.4302 46.769 82.2806 46.8312 82.0963C47.2361 81.3016 47.436 80.4024 47.8859 79.6145C47.9527 79.4428 47.9324 79.2495 47.8314 79.0954C47.7304 78.9414 47.5611 78.8457 47.3771 78.8386C46.6441 78.707 45.9258 78.5033 45.2329 78.2304C44.8744 78.1084 44.5074 78.0131 44.1349 77.9454C42.9469 77.6469 41.8315 77.1109 40.6813 76.9285C40.3795 76.8554 40.3355 76.72 40.3698 76.4307C40.5001 75.7546 40.7013 75.094 40.9703 74.4601C41.425 73.0289 42.0017 71.6436 42.5528 70.2453C43.1038 68.8469 43.53 67.7886 44.054 66.5702C44.5779 65.3518 45.127 64.2108 45.6698 63.0504C46.643 60.9186 47.7592 58.855 49.0107 56.8737L51.1542 53.3322C51.6339 52.5081 52.2122 51.7456 52.8764 51.0614C53.3084 50.5211 53.6937 49.945 54.0282 49.3394C55.0317 47.8429 56.112 46.3995 57.265 45.0149C57.5953 44.6268 57.8893 44.209 58.143 43.767C58.3962 43.3358 58.7186 42.9491 59.0974 42.6226C59.5637 42.2144 59.8574 41.6698 60.2981 41.2485C60.8261 40.7309 61.3182 40.1779 61.7711 39.5934C62.203 39.159 62.6023 38.6932 62.9654 38.1999C63.3849 37.6459 63.8803 37.1537 64.437 36.7378C65.0359 36.2586 65.5757 35.7098 66.0449 35.103C66.1821 34.9434 66.352 34.8152 66.5432 34.7272C66.7599 34.6177 66.9351 34.4406 67.0424 34.2227C67.3622 33.6268 67.8067 33.5466 68.2855 34.0327C69.2113 34.9726 70.0852 35.9507 71.011 36.8906C71.4642 37.3637 71.9043 37.8625 72.3382 38.3418C72.772 38.8212 73.1846 38.7085 73.44 38.1122C73.6922 37.7278 73.9746 37.3642 74.2847 37.0249C74.9836 35.9915 75.7702 35.0203 76.6357 34.1218C77.6872 33.1408 78.8959 32.3432 80.2114 31.7621C80.7559 31.555 81.3662 31.6163 81.8587 31.9276C82.3511 32.2388 82.6683 32.7638 82.7149 33.3445C82.8651 34.4868 82.8671 35.6437 82.721 36.7865C82.5517 37.8555 82.1533 38.8752 81.5531 39.7757C80.1928 41.8435 78.8518 43.9049 77.3763 45.8817C76.4664 47.0972 75.7422 48.4234 74.9029 49.6588C74.4278 50.3693 73.9591 51.0992 73.4584 51.7966C72.9577 52.4941 72.4894 53.1596 71.995 53.8765C71.7397 54.3017 71.4482 54.7041 71.1238 55.0794C70.7938 55.4788 70.5039 55.9097 70.2584 56.3659C70.0044 56.7693 69.6672 57.1142 69.4196 57.5369L68.0065 59.7715C67.3815 60.7447 66.6926 61.6531 66.1445 62.6654C65.5964 63.6778 65.2587 64.0869 64.8224 64.7849C64.386 65.4828 63.956 66.2002 63.5196 66.8981C63.0833 67.5961 62.673 68.2427 62.2754 68.9281C61.9226 69.6409 61.5062 70.3203 61.0312 70.9581C60.797 71.2704 60.598 71.6077 60.438 71.9637C59.7671 73.0588 58.9999 74.1209 58.3932 75.2165C58.0018 75.9212 57.5529 76.5804 57.1553 77.2658C56.7576 77.9512 56.2448 78.5456 55.8665 79.2247C55.4882 79.9038 54.8898 80.7614 54.363 81.5101C53.8362 82.2589 53.1836 83.4763 52.4498 84.3779C52.1414 84.7257 52.0532 85.2166 52.2214 85.65C52.7177 86.9227 53.0429 88.2557 53.1885 89.614C53.2283 90.5926 53.3719 91.5641 53.6168 92.5124C53.8306 93.1702 53.8746 93.3057 54.4822 92.9371C55.0897 92.5686 55.5173 93.0286 55.9139 93.3276C56.3105 93.6265 57.1241 94.0895 57.7001 94.4799C58.2851 94.8323 58.8472 95.2212 59.3833 95.6443C60.0484 96.1769 60.7913 96.62 61.5018 97.0951C61.6484 97.1902 61.8334 97.2034 61.992 97.1302C62.1505 97.0569 62.2604 96.9075 62.283 96.7343C62.2965 96.5824 62.3535 96.4377 62.4471 96.3173C63.0043 95.794 63.0203 95.3824 62.5425 94.7676C62.3427 94.4252 62.1876 94.0586 62.0811 93.6768C61.3038 91.8441 60.6875 89.9472 60.2391 88.0077C59.9499 87.1176 60.1507 86.0898 59.8939 85.1678C59.8064 84.4052 59.7928 83.6359 59.8534 82.8707C59.8237 82.4042 60.0183 81.9515 60.3774 81.6523C60.6858 81.3132 60.9601 80.9446 61.1964 80.5519C61.5795 80.0892 61.9193 79.5921 62.2113 79.067C62.4851 78.593 63.0723 78.3594 63.1348 77.7616C63.0845 77.6068 63.291 77.5183 63.4332 77.4293C63.5755 77.3403 63.8275 77.1942 63.7525 76.8977C63.6776 76.6012 63.7148 76.7816 63.7148 76.7816C64.2953 76.593 64.2813 75.8917 64.7786 75.6445C64.9527 75.5898 65.0728 75.4304 65.0775 75.2479C65.0775 75.2479 65.1114 75.023 65.1694 75.0041C65.7692 74.8092 65.8965 74.1475 66.2985 73.7388C66.5898 73.3216 66.979 72.9822 67.4319 72.7502C67.4189 71.9202 68.5759 72.0576 68.6204 71.2731C68.5827 71.157 68.8405 71.0946 68.9634 71.0119C69.0863 70.9292 69.6406 70.7919 69.5928 70.3154C70.2854 69.9867 70.9056 69.5233 71.4174 68.9525C72.2596 68.1868 73.2991 67.6993 74.1287 66.895C74.2786 66.7545 74.4514 66.6405 74.6395 66.5579C74.92 66.5327 75.1911 66.4446 75.4328 66.3001C76.334 65.387 77.6739 65.1655 78.5688 64.233C79.081 63.8443 79.6646 63.5602 80.2865 63.3968C80.7736 63.2588 81.204 62.9691 81.5152 62.5698C81.7493 62.237 82.2064 62.1954 82.5615 62.0373C83.1494 61.8372 83.6857 61.5095 84.1321 61.0777C84.5033 60.7873 84.9264 60.57 85.3787 60.4374C85.8979 60.2669 86.3994 60.0466 86.8763 59.7797C89.1056 58.4897 91.5125 57.5347 94.0198 56.9452C94.7564 56.626 95.5446 56.4424 96.3465 56.4031C97.1697 56.4351 98.0085 56.1198 98.7732 56.235C99.5379 56.3502 100.273 56.1113 100.991 56.477C101.709 56.8427 102 56.5554 102.501 56.7136C103.002 56.8719 103.836 57.1355 104.491 57.3721C105.106 57.5805 105.704 57.8368 106.28 58.1384C107.215 58.6054 108.109 59.1525 108.95 59.7735C110.031 60.5368 111.031 61.4089 111.935 62.3761C113.349 63.8938 114.523 65.6189 115.415 67.4915C115.566 67.9559 115.94 67.7914 116.276 67.7039C117.391 67.3828 118.591 67.5534 119.573 68.1729C120.75 69.137 121.685 70.3651 122.299 71.7578C123.134 73.5146 123.8 75.3464 124.29 77.2286C124.708 78.3783 124.914 79.5938 124.9 80.8168C124.876 81.691 124.429 82.4989 123.7 82.9822C123.448 83.064 123.26 83.2748 123.412 83.6105C124.192 85.5066 124.528 87.5555 124.396 89.6013C124.459 89.7948 124.534 90.027 124.378 90.2702C124.222 90.5135 124.209 90.5392 124.343 90.6882C124.477 90.8371 124.664 90.7549 124.819 90.7047C125.256 90.5429 125.647 90.2764 125.957 89.9284C126.413 89.5048 126.983 89.2231 127.597 89.1173C128.864 88.6315 130.156 88.2118 131.467 87.86C131.687 87.8013 131.919 87.8075 132.136 87.8779C132.338 87.9898 132.578 88.0126 132.798 87.9409C133.521 87.7335 134.295 87.7848 134.984 88.0861C136.059 88.3921 137.012 89.0243 137.711 89.8954C138.414 90.6688 138.945 91.5829 139.267 92.5771ZM113.139 68.124C113.666 69.0866 113.986 70.1377 114.59 71.0752C114.865 71.475 115.103 71.8988 115.301 72.3416C115.351 72.4964 115.402 72.6512 115.215 72.7334C115.027 72.8156 114.958 72.6671 114.875 72.5442C114.094 71.1293 113.314 69.7145 112.514 68.3059C112.344 67.7834 111.923 67.3427 111.637 66.8581C111.662 67.3961 111.831 67.9175 112.127 68.3672C112.692 69.446 113.289 70.4927 113.885 71.5395C113.923 71.6556 113.973 71.8104 113.851 71.8931C113.728 71.9758 113.645 71.8529 113.575 71.7688C113.478 71.6799 113.394 71.5774 113.326 71.4645C112.889 70.6441 112.38 69.8682 111.968 69.0609C111.021 67.2053 109.971 65.4039 108.824 63.6649C109.273 64.6527 109.761 65.6279 110.269 66.5968C111.138 68.2182 111.955 69.8778 112.863 71.4867C112.919 71.6609 113.13 71.849 113.014 71.9511C112.897 72.0531 112.59 71.8964 112.494 71.7348C112.399 71.5733 112.262 71.0189 111.994 70.7209C111.149 69.2412 110.208 67.793 109.428 66.2494C108.58 64.3017 107.406 62.513 105.956 60.9603C104.379 59.27 102.217 58.2437 99.9107 58.0901C98.0335 58.0581 96.1598 58.2643 94.3346 58.704C91.1017 59.4011 87.9815 60.5445 85.0636 62.1013C82.9899 63.2243 81.0753 64.5737 79.1225 65.8714C78.8057 66.0813 78.3679 66.1165 78.1778 66.5848C78.6136 66.8068 79.0784 66.5916 79.5278 66.7237C80.4224 66.9686 81.2388 67.4401 81.8979 68.0927C81.9356 68.2088 82.1082 68.3452 82.2954 68.263C82.4826 68.1808 82.4261 68.0067 82.4207 67.8587C82.4145 67.106 82.5089 66.3559 82.7015 65.6283C83.108 64.1675 84.1675 62.977 85.5713 62.4038C86.975 61.8305 88.565 61.939 89.8779 62.6976C93.4961 64.993 95.7944 68.8839 96.0584 73.1606C96.3795 75.406 95.125 77.5802 93.0204 78.4259C91.0328 79.3509 88.6692 78.7651 87.3437 77.0189C87.3123 76.9222 87.2683 76.7867 87.2557 76.748C87.2431 76.7093 87.4879 76.6726 87.6156 76.8022C88.2917 77.2931 89.078 77.6106 89.9053 77.7268C90.8478 77.9723 91.8477 77.8607 92.7128 77.4135C95.0375 76.0504 95.9453 73.1437 94.8096 70.6999C94.2448 69.1546 93.4488 67.7038 92.449 66.3972C91.6854 65.165 90.6189 64.1491 89.3511 63.4463C88.3458 62.8521 87.1337 62.7183 86.0231 63.0792C84.9125 63.4401 84.0105 64.2607 83.5465 65.3323C83.0262 66.5771 82.7981 67.9245 82.8797 69.2711C82.9551 69.5033 83.0871 69.9096 82.7839 70.0295C82.4806 70.1495 82.3355 69.7688 82.144 69.5743C81.4624 68.7302 80.6047 68.0452 79.6308 67.5673C78.9443 67.3024 78.181 67.3198 77.5073 67.6155C76.0856 68.2449 75.1292 69.6097 75.0227 71.1609C74.5498 73.7757 75.0316 76.4734 76.3804 78.7628C77.3205 80.9017 79.561 82.1618 81.877 81.8541C83.3298 81.7262 84.5779 80.7706 85.0803 79.4015C85.4953 78.2981 85.5738 77.0964 85.3059 75.9483C85.2619 75.8129 85.1991 75.6194 85.3926 75.5565C85.586 75.4937 85.6876 75.6746 85.7442 75.8487C85.9743 76.4986 86.0952 77.1822 86.102 77.8716C86.2229 79.0962 85.85 80.3185 85.0661 81.2671C84.1386 82.3092 82.8251 82.9265 81.4309 82.9755C80.0367 83.0244 78.6831 82.5008 77.6848 81.5263C76.0642 80.0332 74.8932 78.1168 74.3041 75.9935C73.6611 73.7144 73.9001 71.2768 74.9735 69.166C74.9735 69.166 75.11 68.9934 74.9823 68.8637C74.8011 68.8607 74.624 68.9182 74.4792 69.0272C74.1295 69.3334 73.7604 69.6458 73.3787 69.9195C71.4964 71.2904 69.7503 72.8391 68.1645 74.5443C66.3292 76.4669 65.0057 78.7794 63.2279 80.7475C62.5695 81.4548 62.3993 82.488 62.7962 83.3691C62.9848 83.9496 63.1797 84.5494 63.3683 85.1298C64.0541 87.7663 65.0271 90.3194 66.27 92.7435C66.8532 93.8881 67.4998 94.9992 68.207 96.0716C68.2573 96.2264 68.4619 96.3952 68.1842 96.5282C67.9066 96.6612 67.0601 96.2945 66.9977 96.0367C66.8457 95.4903 66.6249 94.9654 66.3405 94.4747C65.9982 93.619 65.5803 92.7955 65.0918 92.014C65.1832 91.8346 65.1523 91.6735 64.9597 91.6077L64.2633 90.1227C64.2305 89.3633 63.4421 88.9777 63.3638 88.2758C63.1363 89.0046 63.4461 89.7936 64.1085 90.173C64.2719 90.5861 64.3769 91.02 64.4204 91.4621C63.7902 91.4316 63.9111 90.7505 63.5595 90.4583C63.6974 91.3233 64.0372 92.1436 64.5514 92.8527C64.9339 93.94 65.3923 94.9991 65.9234 96.0221C66.1774 96.4744 66.0405 96.7114 65.505 96.9067C64.3337 97.2481 63.5942 98.4017 63.7731 99.6086C64.0011 100.663 64.3883 101.677 64.9212 102.615C65.6983 103.846 66.6135 104.984 67.6491 106.007C68.1384 106.561 68.8894 106.806 69.6109 106.647C70.3324 106.488 70.9111 105.95 71.1226 105.242C71.2443 104.819 71.2252 104.367 71.068 103.955C70.98 103.684 70.8731 103.355 71.2408 103.236C71.6084 103.116 71.6829 103.477 71.7709 103.748C72.0663 104.648 72.4296 105.524 72.8576 106.369C73.4561 107.721 74.2533 108.976 75.2226 110.092C77.6942 112.799 81.209 114.313 84.8736 114.251C87.5406 114.208 90.1956 113.883 92.7943 113.282C94.8814 112.913 96.9069 112.255 98.8118 111.326C99.2428 111.159 99.5506 110.773 99.6172 110.316C99.8166 109.49 100.377 108.797 101.143 108.43C101.815 108.062 102.358 108.548 102.896 108.887C103.218 109.083 103.585 109.192 103.962 109.204C104.835 109.177 105.662 108.802 106.258 108.163C106.853 107.523 107.169 106.672 107.134 105.799C107.107 104.863 107.484 103.961 108.169 103.323C108.7 102.736 109.48 102.437 110.268 102.52C111.055 102.602 111.756 103.055 112.155 103.74C112.262 104.068 112.512 104.115 112.829 103.905C114.116 102.995 115.34 102.02 116.531 101.013C120.536 97.9879 122.827 93.2091 122.676 88.1921C122.714 85.7115 121.927 83.2884 120.438 81.304C120.362 81.0718 120.125 80.9349 119.973 80.7279C119.791 80.5146 119.799 80.1985 119.991 79.9946C120.231 79.7455 120.448 79.953 120.627 80.1088C120.806 80.2646 120.985 80.4847 121.176 80.6791C121.319 80.9175 121.552 81.0883 121.823 81.1533C122.093 81.2182 122.379 81.1719 122.615 81.0246C123.134 80.74 123.368 80.1188 123.166 79.5619C123.003 79.0589 122.839 78.5558 122.798 78.0343C122.215 75.4406 121.153 72.9781 119.669 70.7728C119.334 70.3174 118.923 69.9226 118.455 69.6055C118.172 69.3824 117.809 69.2887 117.453 69.3472C117.098 69.4057 116.783 69.611 116.587 69.913C116.218 70.3896 115.913 70.913 115.681 71.4695C115.596 71.6683 115.537 71.8158 115.274 71.7302C115.01 71.6445 115.22 71.1057 114.893 70.9553L114.29 69.8891C114.29 69.8891 114.382 69.6454 114.202 69.6183L114.077 69.2313L113.98 69.2627L113.873 68.9338C113.97 68.9024 113.945 68.7606 113.81 68.7403L113.549 68.333C113.66 68.1473 113.455 68.0428 113.417 67.9267C112.883 67.0734 112.324 66.1427 111.796 65.3731C112.032 65.703 112.035 66.1083 112.142 66.4373C112.399 67.0408 112.734 67.6079 113.139 68.124ZM115.032 135.704C115.458 135.566 115.903 135.421 116.329 135.283C116.754 135.145 117.083 135.038 116.619 134.397C114.354 131.605 111.764 129.093 108.904 126.915C105.652 124.367 102.252 122.014 98.7212 119.87C95.7732 118.026 92.6882 116.411 89.4934 115.039C89.3032 114.941 89.0895 114.9 88.8767 114.918C87.4322 115.104 85.9754 115.177 84.5195 115.136C82.3367 115.129 80.1826 114.638 78.2126 113.698C75.3774 112.271 73.1623 109.856 71.9849 106.909C71.7586 106.212 71.7586 106.212 71.2458 106.807C70.3742 107.932 68.7831 108.198 67.5933 107.416C67.1135 107.058 66.8606 106.477 66.4195 106.107C65.2688 105.142 64.3854 103.897 63.8542 102.491C63.3598 101.273 62.5002 100.237 61.3933 99.5262C59.4595 98.3148 57.6172 96.924 55.7164 95.6165C55.1597 95.2198 55.1079 95.258 54.7683 95.9245C54.2008 96.9431 53.5821 97.9357 53.0146 98.9543C51.7622 101.222 50.2983 103.366 49.1803 105.719C48.8078 106.482 48.4353 107.245 48.0115 107.981C47.8093 108.346 47.9176 108.482 48.219 108.62C50.9953 109.857 53.7137 111.113 56.4591 112.189C61.9809 114.502 67.4765 116.866 73.0898 118.999C76.6435 120.39 80.275 121.692 83.8751 122.897C84.2858 123.041 84.3617 123.209 84.2751 123.601C83.5552 126.68 82.5392 129.682 81.2411 132.566C81.0839 132.938 81.1468 133.131 81.4737 133.281C81.8007 133.432 82.6733 133.747 83.2895 133.932C89.1067 135.722 95.1453 136.69 101.23 136.809C103.41 136.935 105.701 136.875 107.915 136.776C110.325 136.738 112.718 136.377 115.032 135.704ZM137.599 92.8411C137.276 91.3413 136.052 90.2021 134.532 89.9871C132.848 89.7074 131.121 89.8287 129.492 90.3413C127.602 90.8093 125.908 91.8612 124.651 93.3476C122.376 96.345 120.371 99.5376 118.659 102.888C118.509 103.151 118.508 103.344 118.854 103.488C119.758 103.965 120.635 104.492 121.468 104.949C123.969 106.062 126.328 107.135 128.719 108.304C130.402 109.13 132.197 109.707 134.046 110.018C134.335 110.052 134.586 110.099 134.762 109.785C135.625 107.68 136.353 105.521 136.94 103.323C137.302 101.857 137.584 100.373 137.785 98.8773C138.165 96.8758 138.101 94.8154 137.599 92.8411ZM43.055 87.9866C43.614 87.7884 44.1595 87.554 44.688 87.2848C45.2903 86.9038 45.6493 86.2353 45.6343 85.5228C45.6466 84.9124 45.2791 84.3585 44.712 84.1325C43.9486 83.6343 42.977 83.5828 42.1653 83.9974C41.4997 84.3098 40.7977 84.5379 40.0756 84.6764C39.557 84.7598 39.0544 84.9231 38.5858 85.1604C36.51 86.478 35.8304 89.1909 37.0399 91.3314C37.0839 91.4669 37.2822 91.6163 37.1782 91.7571C37.0742 91.8978 36.9073 91.8451 36.7535 91.7667C35.9632 91.6353 35.1628 91.5732 34.3616 91.5813C32.967 91.6037 31.5754 91.72 30.1964 91.9293C29.4313 91.9782 28.7586 92.4531 28.4564 93.1578C28.3313 93.365 28.3024 93.6164 28.3772 93.8466C28.452 94.0769 28.6232 94.2633 28.8462 94.3574C29.7949 94.9223 30.8692 95.2422 31.9723 95.2882C32.8604 95.3042 33.7459 95.3883 34.6211 95.54C35.2252 95.6218 35.8419 95.7422 36.4586 95.8627C36.7116 95.9087 36.9024 96.1184 36.9244 96.3745C36.9489 96.5729 36.8326 96.7618 36.6443 96.8292C36.0252 97.0304 35.539 97.5092 34.9199 97.7104C33.7155 98.1064 32.5958 98.7242 31.6184 99.5317C30.968 100.065 30.6047 100.871 30.6368 101.712C30.6351 102.04 30.7885 102.349 31.0507 102.546C31.3128 102.744 31.6528 102.805 31.9674 102.713C32.9585 102.476 33.9291 102.161 34.8697 101.77C36.1041 101.076 37.5444 100.843 38.9343 101.112C40.7946 101.47 42.6748 101.717 44.5646 101.85C46.1646 101.76 47.7447 102.24 49.0257 103.202C49.2303 103.371 49.3599 103.244 49.4707 103.058C50.8712 100.784 52.0526 98.561 53.382 96.3322C53.6427 95.8838 53.5286 95.6642 53.1644 95.3333C52.0773 94.5063 51.432 93.2245 51.4151 91.8587C51.3996 91.3504 51.3972 90.8164 51.3305 90.2819C51.2347 88.8697 50.9953 87.471 50.6159 86.1075C50.3519 85.2948 50.1985 85.1521 49.5 85.6358C48.4985 86.3963 47.7994 87.4876 47.5273 88.7154C47.2329 89.8134 47.0901 90.9466 47.1028 92.0834C47.0859 92.6237 46.9562 92.7513 46.5199 92.5936C45.2001 92.1283 43.9236 91.5481 42.7051 90.8598C42.0402 90.5118 41.5988 89.8486 41.5346 89.1009C41.4466 88.83 41.526 88.5476 41.8675 88.4794C42.2722 88.3373 42.6686 88.1728 43.055 87.9866ZM124.836 119.727C125.006 120.608 125.543 121.375 126.313 121.835C126.548 122.091 126.899 122.206 127.239 122.139C127.58 122.072 127.861 121.833 127.982 121.507C128.444 120.814 128.672 119.99 128.63 119.157C128.566 118.237 128.483 117.323 128.394 116.389C128.162 114.805 128.483 113.19 129.303 111.815C129.551 111.393 129.773 110.957 129.995 110.521C130.217 110.085 130.172 110.078 129.8 109.921C128.606 109.14 127.353 108.453 126.052 107.866C123.552 106.753 120.824 105.864 118.344 104.552C118.219 104.487 118.072 104.475 117.938 104.519C117.803 104.563 117.692 104.658 117.628 104.785C117.324 105.129 116.857 105.28 116.409 105.181C115.663 105.124 114.898 105.137 114.151 105.144C113.664 105.082 113.185 105.313 112.931 105.733C112.467 106.452 112.428 107.364 112.829 108.12C113.319 109.338 114.534 110.107 115.845 110.027C116.128 109.989 116.416 110.056 116.654 110.214C116.711 110.388 116.98 110.493 116.837 110.775C116.772 110.988 116.567 111.126 116.345 111.106C115.436 111.18 114.564 111.5 113.822 112.032C112.721 112.633 111.82 113.543 111.229 114.65C110.965 115.275 111.002 115.986 111.329 116.581C111.655 117.175 112.236 117.587 112.904 117.7C113.604 117.728 114.29 117.505 114.839 117.071C116.395 116.027 117.811 114.791 119.056 113.391C119.19 113.2 119.39 113.066 119.618 113.016C119.773 112.965 119.927 113.044 119.996 113.192C120.073 113.308 120.061 113.462 119.968 113.565L119.676 113.917C118.32 115.509 117.467 117.469 117.227 119.547C117.165 120.013 117.337 120.48 117.688 120.794C118.038 121.108 118.521 121.229 118.978 121.117C120.099 120.938 121.064 120.226 121.566 119.207C122.273 117.802 123.077 116.447 123.97 115.152C124.127 114.909 124.328 114.673 124.686 114.92C125.045 115.167 124.966 115.385 124.919 115.636C124.35 116.935 124.321 118.406 124.836 119.727ZM69.9138 38.1883L69.7097 37.9552C69.2565 37.4821 68.7646 37.0216 68.3439 36.5165C67.9231 36.0115 67.7741 36.1455 67.3982 36.5029C64.6547 39.0751 62.0727 41.8143 59.6671 44.705C58.1471 46.6107 56.4913 48.6247 55.1827 50.6542C53.2441 53.466 51.4531 56.3368 49.8096 59.2667C48.4594 61.6948 47.1344 64.2003 45.847 66.8218C44.5597 69.4434 43.788 71.9402 42.8098 74.5256C42.6656 74.8719 42.8189 75.0146 43.0172 75.1641C43.2155 75.3136 44.255 75.6817 44.8509 76.0015C45.4468 76.3213 45.5319 76.1225 45.7603 75.706C47.0665 73.1425 48.1414 70.5257 49.5047 68.072C51.5678 64.1074 53.7991 60.3092 56.1985 56.6774C58.1447 53.7134 60.1102 50.7431 62.2227 47.8962C64.5888 44.7102 67.1081 41.6669 69.7169 38.7015C69.8466 38.5738 69.9956 38.4399 69.9138 38.1883ZM99.8743 112.885L99.7863 112.614C99.56 111.918 99.56 111.918 98.908 112.215C97.5319 112.833 96.1158 113.357 94.6691 113.785C93.986 114.002 93.2852 114.158 92.5747 114.251C92.4199 114.302 92.1887 114.248 92.1297 114.396C92.0706 114.544 92.224 114.686 92.4552 114.739L93.1285 115.034C96.5465 116.776 99.8222 118.628 102.955 120.59C104.737 121.665 106.441 122.862 108.056 124.174C111.601 127.237 114.927 130.545 118.011 134.074C118.074 134.267 118.31 134.468 118.581 134.38C118.852 134.292 118.771 133.976 118.76 133.745C118.741 133.651 118.712 133.56 118.672 133.474C118.13 129.904 118.192 126.268 118.856 122.718C118.984 121.992 118.99 122.011 118.258 121.864C117.653 121.8 117.1 121.495 116.723 121.017C116.346 120.54 116.178 119.93 116.257 119.327C116.277 118.548 116.424 117.778 116.692 117.047C116.765 116.873 116.927 116.649 116.703 116.551C116.478 116.453 116.412 116.646 116.315 116.806C115.674 117.534 114.826 118.049 113.884 118.28C112.728 118.644 111.467 118.252 110.72 117.297C109.931 116.471 109.778 115.224 110.344 114.232L110.847 113.341C110.957 113.156 111.01 112.989 110.702 112.896C109.762 112.359 108.671 112.15 107.599 112.3C106.612 112.621 106.319 113.101 106.859 113.974C107.056 114.282 107.17 114.635 107.193 114.999C107.237 116.097 107.149 117.196 106.93 118.272C106.854 118.687 106.611 119.053 106.258 119.285C105.905 119.517 105.473 119.595 105.061 119.5C103.92 119.332 102.891 118.721 102.198 117.799C101.32 116.212 100.544 114.571 99.8743 112.885ZM123.48 117.857C123.266 118.039 123.114 118.283 123.044 118.555C122.787 119.313 122.336 119.991 121.736 120.52C120.943 121.176 120.428 122.108 120.294 123.128C119.71 125.501 119.402 127.934 119.377 130.378C119.467 131.26 119.609 132.135 119.801 133C119.886 133.657 120.046 133.754 120.583 133.43C121.754 132.772 122.88 132.034 123.951 131.223C128.476 127.752 132.363 123.522 135.44 118.72C136.358 117.267 137.385 115.949 138.323 114.425C138.498 114.175 138.751 113.901 138.394 113.589L135.832 111.17C135.609 110.943 135.403 110.903 135.329 111.333C135.255 111.764 134.991 111.743 134.613 111.566C133.746 111.334 132.873 111.148 132.012 110.935C131.677 110.833 131.314 110.951 131.103 111.231C130.358 111.931 129.848 112.844 129.642 113.844C129.457 114.872 129.423 115.92 129.541 116.958C129.813 118.763 129.471 120.607 128.568 122.194C128.414 122.683 128.033 123.067 127.545 123.226C127.058 123.384 126.523 123.297 126.111 122.992C125.057 122.376 124.276 121.384 123.925 120.215C123.733 119.358 123.661 118.611 123.461 117.864L123.48 117.857ZM49.0686 84.8347C49.6331 84.5898 50.1432 84.235 50.5692 83.791C51.9832 81.895 53.2748 79.9106 54.4358 77.8499C55.6999 75.7493 56.8552 73.5771 58.2155 71.5094C60.8776 67.4571 63.6166 63.444 66.1636 59.3008C67.6488 56.893 69.1726 54.4727 70.754 52.0978C72.7514 49.1599 74.6768 46.3952 76.5005 43.4496C77.9707 41.0625 79.3123 38.5987 80.5197 36.0685C80.7093 35.6647 80.8414 35.2153 80.9861 34.8047C81.0379 34.6336 80.9777 34.4483 80.8352 34.3403C80.6688 34.2232 80.5643 34.4283 80.4289 34.4723C79.7906 34.9156 79.204 35.4291 78.6802 36.0031C77.1757 37.5615 75.7734 39.2365 74.3903 40.9051C72.5918 43.0725 70.8507 45.2853 69.1929 47.5567C66.8332 50.762 64.7037 54.1492 62.5679 57.5171C59.8717 61.8157 57.3142 66.2119 54.8954 70.7057C53.0237 74.0305 51.2342 77.5426 49.5928 81.0493C49.0932 82.0172 48.7076 83.0398 48.4437 84.0965C48.3755 84.6107 48.7204 84.9479 49.0686 84.8347ZM118.549 100.443C118.393 100.413 118.233 100.466 118.123 100.581C117.625 101.021 117.158 101.494 116.653 101.914C115.844 102.601 114.993 103.234 114.104 103.812C113.968 103.856 113.813 103.907 113.869 104.145C113.926 104.383 113.932 104.339 114.106 104.346C114.891 104.487 115.695 104.487 116.48 104.345C116.79 104.244 117.099 104.144 116.838 103.737C116.743 103.585 116.758 103.39 116.874 103.254L118.3 101.058C118.428 100.874 118.513 100.664 118.549 100.443Z" fill="#366FA7"/>
<path d="M71.1451 66.3456C70.2938 66.6222 69.0584 65.7829 68.775 64.9765C68.5739 64.3574 69.0886 63.5056 69.5617 63.0524C70.0348 62.5992 70.5596 62.1078 71.0395 61.6096C71.5457 61.0441 72.0869 60.511 72.66 60.0135C72.7761 59.9758 72.9309 59.9255 72.9324 59.7325C73.1815 59.1168 73.5153 59.2223 73.9375 59.5343C75.0059 60.1366 75.4349 61.4568 74.9245 62.572C74.6875 63.4161 74.2488 64.1899 73.6464 64.8269C72.9481 65.5285 72.0897 66.0497 71.1451 66.3456Z" fill="#366FA7"/>
<path d="M82.4234 55.4289C83.1863 55.0235 84.0906 54.9808 84.8884 55.3125C85.2767 55.4628 85.5893 55.7615 85.757 56.1426C85.757 56.1426 85.757 56.1426 85.7947 56.2587C86.2222 57.5744 86.2222 57.5744 84.8683 57.9502C83.6717 58.2326 82.5004 58.6132 81.3662 59.0881C81.1443 59.1921 80.9104 59.2682 80.6697 59.3144C80.4453 59.3873 80.2043 59.2645 80.1313 59.0401C80.007 58.7897 79.9201 58.5224 79.8736 58.2468C79.7478 57.8598 79.4107 57.349 79.7024 57.0617C80.1428 56.4682 80.7233 55.9929 81.3921 55.6784L82.4234 55.4289Z" fill="#366FA7"/>
<path d="M105.941 88.0458C106.1 88.2264 106.177 88.4643 106.155 88.7036C106.205 90.1691 106.803 91.5625 107.83 92.6087C108.339 93.1824 109.008 93.5908 109.751 93.7813C109.848 93.7499 110.111 93.8355 110.104 94.0092C110.096 94.1828 109.883 94.252 109.716 94.2636C109.015 94.3522 108.304 94.2162 107.686 93.875C107.16 93.5751 107.115 93.6326 106.988 94.23C106.726 95.549 106.31 96.8328 105.749 98.055C105.346 99.3167 104.826 100.538 104.197 101.704C102.973 103.757 100.712 104.961 98.3251 104.831C96.2262 104.719 94.1623 104.246 92.2238 103.434C91.2298 103.008 90.2029 102.679 89.1959 102.278C88.9008 102.16 88.7842 102.262 88.7499 102.552C88.6971 103.159 88.4692 103.739 88.0938 104.22C87.9584 104.264 87.8791 104.546 87.6682 104.358C87.4573 104.17 87.5864 104.106 87.7098 103.959C88.4138 102.269 88.0581 100.324 86.8018 98.992C86.5758 98.7933 86.3265 98.6229 86.0593 98.4846C86.0593 98.4846 85.8286 98.367 85.8489 98.2321C85.8693 98.0971 86.0811 98.1566 86.1779 98.1252C87.2287 98.1805 88.1521 98.8399 88.5455 99.8159C88.6665 100.13 88.9182 100.376 89.2352 100.49C91.7819 101.573 94.597 101.86 97.3096 101.311C99.3747 100.891 101.276 99.8871 102.787 98.4186C103.916 97.4948 104.879 96.3861 105.637 95.1397C105.859 94.7039 106.081 94.2681 106.277 93.8193C106.536 93.332 106.516 92.7433 106.224 92.2748C105.494 90.9808 105.39 89.4255 105.941 88.0458Z" fill="#366FA7"/>
<path d="M101.72 77.8874C102.389 79.7878 102.14 81.8906 101.047 83.5825C100.142 85.0944 98.8932 86.372 97.4028 87.3121C97.1464 87.4749 96.8787 87.6191 96.6017 87.7435C96.4276 87.8 96.119 87.772 96.1746 88.0748C96.2302 88.3776 96.4817 88.2958 96.681 88.3167C97.8294 88.6491 98.9024 89.2013 99.8404 89.9426C100.263 90.1903 100.079 90.6779 99.8708 91.0237C99.6623 91.3695 99.1786 91.5267 98.8013 91.2215C98.4241 90.9162 97.5612 90.1698 96.8957 89.7015C96.2552 89.2971 95.5354 89.0349 94.7848 88.9328C94.4443 88.8723 94.3398 89.0774 94.4922 89.3487C94.9902 90.4146 95.6297 91.4084 96.3934 92.3033C96.5785 92.4927 96.751 92.6938 96.9099 92.9056C97.2857 93.4038 97.1991 93.7956 96.9398 94.051C96.4806 94.3987 95.8323 94.3409 95.4418 93.9174C94.5822 92.6755 93.8446 91.3535 93.2393 89.9697C93.1639 89.7375 93.0696 89.4473 92.806 89.426C92.5423 89.4047 92.4238 89.7641 92.3769 90.0146C92.1736 91.3642 91.8673 92.7258 91.7347 94.0951C91.6655 94.7379 91.4125 95.0127 90.9177 94.9381C90.6406 94.9101 90.3913 94.7576 90.2404 94.5236C90.0894 94.2895 90.0532 93.9996 90.1419 93.7356C90.4061 92.8369 90.7215 91.9643 91.0176 91.098C91.0703 90.9311 91.1811 90.7454 91.0534 90.6158C90.9257 90.4861 90.7318 90.6133 90.6084 90.7604C89.8711 91.1782 89.0949 91.5235 88.2909 91.7914C86.1341 92.5049 83.806 92.512 81.6448 91.8118C80.0924 91.3501 78.827 90.2198 78.1937 88.7292C77.5604 87.2385 77.6253 85.543 78.3707 84.1052C78.4079 84.0109 78.4584 83.9224 78.5207 83.8425C78.6639 83.6249 78.8516 83.4783 79.1398 83.6413C79.4281 83.8044 79.3942 84.0293 79.341 84.2605C78.7142 85.7457 78.9034 87.4499 79.8408 88.7614C80.7379 90.4354 82.6013 91.3524 84.475 91.0419C85.9123 91.0003 87.3342 90.7332 88.6886 90.2504C89.7925 89.7634 90.8649 89.1796 91.9431 88.6796C93.0213 88.1795 94.1445 87.6862 95.2483 87.1992C96.3456 86.765 97.3503 86.1264 98.2092 85.3173C99.1194 84.5515 99.9091 83.6531 100.552 82.6523C101.589 80.841 101.383 78.5743 100.035 76.9803C99.3897 76.1408 98.5865 75.4354 97.6706 74.9036C97.4336 74.7667 97.0481 74.6995 97.1604 74.3207C97.2726 73.942 97.6843 73.958 97.9924 74.0504C99.6255 74.3585 100.974 75.5062 101.54 77.069C101.539 77.262 101.601 77.5198 101.72 77.8874Z" fill="#366FA7"/>
<path d="M89.3039 72.0613C89.5443 72.7508 89.4195 73.5151 88.9722 74.0923C88.5249 74.6694 87.816 74.9811 87.0883 74.9203C86.5695 74.845 86.1305 74.4982 85.9372 74.0109C85.7943 73.7021 85.6887 73.3773 85.6229 73.0435C85.4125 71.9353 85.9809 70.788 86.9793 70.6347C87.4774 70.5052 88.0067 70.5841 88.4453 70.8532C88.8839 71.1224 89.1939 71.5586 89.3039 72.0613Z" fill="#366FA7"/>
<path d="M81.3579 75.6479C81.1732 75.0932 81.2361 74.4858 81.5305 73.9807C81.825 73.4756 82.3225 73.1216 82.8962 73.009C83.677 72.8765 84.4268 73.3715 84.6119 74.1414C84.7081 74.523 84.7634 74.9138 84.7767 75.3072C84.8168 76.1539 84.2302 76.902 83.3984 77.0651C82.5666 77.2281 81.7409 76.7567 81.4585 75.9575L81.3579 75.6479Z" fill="#366FA7"/>
<path d="M75.8282 42.0427C75.8521 42.2147 75.799 42.3885 75.6831 42.5177C74.4795 44.2778 73.2503 46.0249 72.0786 47.8174C69.7164 51.3444 67.3862 54.9038 65.0303 58.4501C63.9041 60.1851 62.7266 61.8939 61.6324 63.6613C59.646 66.8309 57.6597 70.0004 55.7566 73.2285L53.0059 77.9299C52.8105 78.2501 52.5967 78.448 52.2247 78.2907C51.8528 78.1335 51.92 77.748 52.0831 77.4597C53.009 75.8326 53.9349 74.2055 54.8865 72.5914C57.5718 68.0182 60.3278 63.4648 63.1989 59.0024C66.07 54.54 69.5439 49.4966 72.8668 44.8446L74.9469 42.0296C75.0964 41.8313 75.2391 41.678 75.5467 41.8347C75.6684 41.8552 75.773 41.9324 75.8282 42.0427Z" fill="#366FA7"/>
<path d="M32.9836 122.104C34.36 121.655 35.8719 122.055 36.8472 123.125C37.8225 124.195 38.0802 125.737 37.5057 127.066C36.9313 128.395 35.6313 129.264 34.1836 129.287C32.064 129.75 29.9536 128.469 29.3869 126.375C29.266 124.223 30.8431 122.351 32.9836 122.104Z" fill="#366FA7"/>
<path d="M48.1546 131.465L51.1008 138.295C53.781 144.568 51.0951 150.062 45.0665 152.641C39.096 155.201 33.075 153.393 30.4146 147.048L27.5061 140.335L48.1546 131.465ZM45.2639 138.501L34.788 142.996L35.6542 145.003C36.1714 146.404 37.2776 147.506 38.6796 148.018C40.0817 148.531 41.638 148.401 42.9362 147.664C44.3768 147.236 45.5569 146.197 46.1642 144.822C46.7715 143.447 46.7449 141.875 46.0914 140.521L45.2639 138.501Z" fill="#366FA7"/>
<path d="M48.6608 158.639C53.4164 154.249 60.2961 153.96 64.297 158.307C68.2979 162.655 67.5003 169.417 62.7384 173.788C57.989 178.197 51.1093 178.486 47.0441 174.138C42.9789 169.79 43.9052 163.029 48.6608 158.639ZM58.9919 169.828C61.3956 167.614 62.1223 164.255 60.1185 162.104C58.1147 159.952 54.7853 160.371 52.3816 162.585C49.9973 164.793 49.2831 168.191 51.2676 170.349C53.2521 172.506 56.5945 172.062 58.9919 169.828Z" fill="#366FA7"/>
<path d="M74.4655 168.137L79.0842 170.765L70.6463 185.614L78.75 190.211L76.0181 194.97L63.3021 187.765L74.4655 168.137Z" fill="#366FA7"/>
<path d="M86.3323 187.277C87.8733 180.894 93.2437 176.882 98.8884 178.256C102.145 178.968 104.75 181.405 105.679 184.606L100.937 187.195C100.478 185.494 99.1674 184.154 97.477 183.656C94.8506 183.012 92.4077 185.303 91.6123 188.385C90.8217 191.68 92.0472 194.661 94.6543 195.312C96.4463 195.701 98.3093 195.096 99.5301 193.727L102.644 197.914C100.353 200.648 96.7019 201.835 93.241 200.969C87.8918 199.648 84.7578 193.821 86.3323 187.277Z" fill="#366FA7"/>
<path d="M110.444 180.576L125.803 179.521L126.149 184.8L115.992 185.469L116.312 189.023L125.504 188.41L125.84 193.328L116.629 193.947L116.834 197.41L127.12 196.741L127.472 202.039L111.934 203.066L110.444 180.576Z" fill="#366FA7"/>
<path d="M137.9 176.062L151.548 169.018L154.052 173.895L145.126 178.485L146.875 181.895L154.942 177.755L157.314 182.354L149.227 186.5L152.904 193.669L148.17 196.085L137.9 176.062Z" fill="#366FA7"/>
<path d="M157.68 163.538L161.412 160.015L182.902 170.916L178.742 174.834L174.967 172.831L169.569 177.943L171.464 181.798L167.362 185.634L157.68 163.538ZM170.586 170.34L164.581 167.2L167.385 173.326L170.586 170.34Z" fill="#366FA7"/>
<path d="M168.964 151.851L173.252 143.848C174.018 141.844 175.649 140.294 177.689 139.631C179.73 138.968 181.96 139.263 183.758 140.434C186.43 141.601 188.139 144.261 188.088 147.177L197.181 146.854L194.29 152.243L186.459 152.434L185.337 154.51L191.347 157.734L188.737 162.539L168.964 151.851ZM182.682 149.169C183.111 148.55 183.245 147.773 183.05 147.045C182.855 146.318 182.349 145.713 181.668 145.391C181.027 144.968 180.228 144.859 179.497 145.097C178.767 145.334 178.184 145.892 177.914 146.611L176.244 149.699L181.037 152.271L182.682 149.169Z" fill="#366FA7"/>
<path d="M180.58 123.412L180.682 118.459L192.713 110.721L180.832 110.56L180.936 105.285L203.476 105.726L203.383 110.377L190.854 118.363L203.217 118.624L203.126 123.873L180.58 123.412Z" fill="#366FA7"/>
<path d="M179.591 100.224L178.376 95.0354L200.25 89.9387L201.518 95.0245L179.591 100.224Z" fill="#366FA7"/>
<path d="M177.129 89.8792L170.312 76.008L175.052 73.6764L179.569 82.9044L182.668 81.3838L178.588 73.1049L183.018 70.9383L187.073 79.2041L190.282 77.6265L185.746 68.4048L190.505 66.0669L197.386 80.0673L177.129 89.8792Z" fill="#366FA7"/>
<path d="M168.078 72.6271L164.612 69.0687L167.645 55.0986L159.109 63.3911L155.445 59.6189L171.577 43.8953L174.801 47.2331L171.667 61.7493L180.547 53.1313L184.346 56.8595L168.078 72.6271Z" fill="#366FA7"/>
<path d="M150.037 50.0169L155.067 52.6607L152.463 57.4854L137.605 49.4786L140.208 44.6538L145.335 47.2662L153.292 32.2526L157.976 34.7523L150.037 50.0169Z" fill="#366FA7"/>
<path d="M134.19 48.4489L119.055 45.3874L120.105 40.1906L130.087 42.2093L130.776 38.8626L121.743 37.0698L122.739 32.2329L131.764 34.0706L132.486 30.5633L122.362 28.5049L123.431 23.3018L138.706 26.403L134.19 48.4489Z" fill="#366FA7"/>
<path d="M113.87 31.9278C114.068 34.0839 112.544 36.0177 110.401 36.3278C108.248 36.1905 106.576 34.3967 106.591 32.2393C106.392 30.0833 107.917 28.1494 110.06 27.8393C112.213 27.9766 113.884 29.7705 113.87 31.9278Z" fill="#366FA7"/>
</svg>
