<svg width="58" height="56" viewBox="0 0 58 56" fill="none" xmlns="http://www.w3.org/2000/svg">
<path d="M18.9154 53.1578C18.9078 53.1719 18.9012 53.1864 18.8956 53.2014C18.8956 53.2212 18.8738 53.233 18.8639 53.233C18.854 53.233 18.8402 53.2212 18.8322 53.2014C18.8243 53.1816 18.8145 53.1657 18.8105 53.1578L18.1689 51.3657H17.4204V55.9301H18.2303V53.7638C18.2287 53.7493 18.2287 53.7347 18.2303 53.7202C18.2303 53.7044 18.2421 53.6945 18.258 53.6945C18.2737 53.6942 18.2879 53.7036 18.2937 53.7182L18.3095 53.752L18.7966 55.0589C18.8031 55.0737 18.8103 55.0883 18.8183 55.1023C18.8279 55.1157 18.8436 55.1233 18.86 55.1222C18.8757 55.1229 18.8907 55.1154 18.8995 55.1023L18.9233 55.0589L19.4085 53.7459L19.4282 53.7084C19.4381 53.6925 19.448 53.6826 19.4599 53.6826C19.4719 53.6826 19.4856 53.6945 19.4896 53.7143C19.4907 53.7288 19.4907 53.7433 19.4896 53.7579V55.936H20.2975V51.3657H19.547L18.9154 53.1578Z" fill="#7E5F40"/>
<path d="M24.1083 51.673C24.0124 51.5788 23.8995 51.5035 23.7757 51.4513C23.6502 51.3985 23.5157 51.3709 23.3797 51.3701H22.5698C22.4297 51.369 22.2909 51.3966 22.1619 51.4513C22.0395 51.5041 21.928 51.5793 21.8333 51.673C21.7383 51.7684 21.6629 51.8814 21.6114 52.0058C21.5574 52.1307 21.5298 52.2656 21.5303 52.4017V54.887C21.5284 55.1644 21.6375 55.4309 21.8333 55.6275C21.9287 55.7195 22.04 55.7933 22.1619 55.8454C22.2905 55.9009 22.4297 55.9287 22.5698 55.9266H23.3797C23.5158 55.9266 23.6506 55.899 23.7757 55.8454C23.9 55.7938 24.0129 55.7185 24.1083 55.6235C24.2021 55.5288 24.2773 55.4173 24.3301 55.2949C24.3846 55.1659 24.4123 55.027 24.4112 54.887V52.4057C24.4106 52.2697 24.3831 52.1351 24.3301 52.0097C24.2783 51.8843 24.203 51.77 24.1083 51.673ZM23.6014 54.7444C23.6082 54.8531 23.5711 54.9601 23.4984 55.0414C23.4175 55.1177 23.3084 55.1565 23.1975 55.1484H22.7361C22.6279 55.1604 22.5199 55.1225 22.4429 55.0456C22.3658 54.9685 22.328 54.8606 22.3401 54.7522V52.574C22.328 52.4658 22.3658 52.3579 22.4429 52.2807C22.5199 52.2037 22.6279 52.1659 22.7361 52.178H23.1975C23.3059 52.1652 23.4143 52.2026 23.4916 52.2799C23.5688 52.3571 23.6065 52.4656 23.5935 52.574L23.6014 54.7444Z" fill="#7E5F40"/>
<path d="M27.706 54.035L26.3873 51.3657H25.625V55.9301H26.4349V53.2727L27.7576 55.9301H28.5139V51.3657H27.706V54.035Z" fill="#7E5F40"/>
<path d="M30.7799 51.3657L29.7285 55.9301H30.5661L30.7166 55.1737H31.6294L31.7799 55.9301H32.6174L31.566 51.3657H30.7799ZM30.867 54.3876L31.1145 53.1004C31.1145 53.0846 31.1205 53.0648 31.1324 53.0411C31.1366 53.022 31.1535 53.0085 31.1729 53.0085C31.1925 53.0085 31.2094 53.022 31.2135 53.0411C31.2214 53.0648 31.2274 53.0846 31.2314 53.1004L31.4789 54.3876H30.867Z" fill="#7E5F40"/>
<path d="M34.8681 52.1527H35.3294C35.4442 52.1443 35.5569 52.1862 35.6383 52.2676C35.706 52.3376 35.743 52.4315 35.7412 52.5289L36.5512 52.3309C36.5398 52.2044 36.5055 52.081 36.4502 51.9666C36.3985 51.8492 36.3245 51.7429 36.2323 51.6537C36.1383 51.5687 36.0297 51.5015 35.9116 51.4557C35.7864 51.4024 35.6515 51.3754 35.5156 51.3765H34.7057C34.5656 51.3756 34.4269 51.4033 34.2978 51.4577C34.1754 51.5104 34.0639 51.5857 33.9692 51.6795C33.7745 51.8718 33.6631 52.1327 33.6582 52.4062V54.8914C33.6563 55.309 33.9053 55.687 34.2899 55.8498C34.4187 55.9052 34.5577 55.9328 34.6978 55.931H35.5076C35.6435 55.9319 35.7781 55.9056 35.9037 55.8538C36.0224 55.8049 36.1312 55.7343 36.2245 55.6459C36.3149 55.5593 36.3892 55.4573 36.4442 55.3448C36.499 55.2338 36.5333 55.1137 36.5452 54.9903L35.7353 54.7924C35.7402 54.891 35.701 54.9868 35.6284 55.0537C35.5447 55.1213 35.4389 55.1552 35.3314 55.1487H34.8701C34.7602 55.1643 34.6493 55.1279 34.5699 55.0504C34.4904 54.9729 34.4514 54.863 34.4641 54.7527V52.5746C34.4424 52.4606 34.4771 52.3432 34.5573 52.2594C34.6375 52.1757 34.7533 52.1359 34.8681 52.1527Z" fill="#7E5F40"/>
<path d="M40.3423 51.673C40.1462 51.479 39.8815 51.3702 39.6057 51.3701H38.8077C38.6676 51.369 38.5288 51.3966 38.3999 51.4513C38.2771 51.5036 38.1656 51.5789 38.0711 51.673C37.9763 51.7689 37.9003 51.8817 37.8474 52.0058C37.7951 52.1312 37.7682 52.2658 37.7682 52.4017V54.887C37.7639 55.1648 37.8733 55.4323 38.0711 55.6275C38.1663 55.7199 38.2777 55.7938 38.3999 55.8454C38.5285 55.9009 38.6675 55.9287 38.8077 55.9266H39.5998C39.8753 55.9266 40.1401 55.8178 40.3362 55.6238C40.4306 55.529 40.5066 55.4175 40.5602 55.2949C40.6141 55.1658 40.641 55.0269 40.6393 54.887L40.6393 52.4057C40.6394 52.2698 40.6125 52.1351 40.5602 52.0097C40.5094 51.8847 40.4355 51.7705 40.3423 51.673ZM39.8374 54.7444C39.8436 54.8534 39.8058 54.9605 39.7324 55.0414C39.6521 55.1172 39.5437 55.156 39.4334 55.1484H38.97C38.8616 55.1612 38.7533 55.1236 38.676 55.0464C38.5988 54.9692 38.5612 54.8608 38.5741 54.7523V52.574C38.5612 52.4656 38.5988 52.3571 38.676 52.2799C38.7533 52.2026 38.8616 52.1652 38.97 52.178H39.4334C39.5419 52.1652 39.6504 52.2026 39.7276 52.2799C39.8048 52.3571 39.8424 52.4656 39.8295 52.574L39.8374 54.7444Z" fill="#7E5F40"/>
<path d="M48.773 17.2026V11.4401C48.777 10.9437 48.6966 10.4502 48.5353 9.98071C48.3908 9.55275 48.1693 9.15481 47.8819 8.80643C47.6085 8.47897 47.2655 8.21652 46.878 8.0381C46.4835 7.85321 46.0524 7.75917 45.6167 7.76285H42.71C42.2773 7.75828 41.8493 7.85239 41.4585 8.0381C41.0765 8.21905 40.7387 8.48129 40.4685 8.80643C40.1824 9.15066 39.961 9.54378 39.815 9.96685C39.6529 10.432 39.5725 10.9218 39.5774 11.4144V19.4976C39.5734 19.994 39.6538 20.4875 39.815 20.957C39.9583 21.3838 40.1843 21.7782 40.4803 22.1174C40.7621 22.4371 41.1074 22.6948 41.4941 22.8738C41.8898 23.0572 42.3213 23.1505 42.7574 23.1471H45.5058C46.3557 23.1749 47.1779 22.8435 47.771 22.2343C48.365 21.627 48.6621 20.7927 48.6621 19.7312V19.4976L45.8899 18.6897C45.8826 19.0037 45.7804 19.3081 45.5969 19.5629C45.4305 19.761 45.1533 19.862 44.7633 19.862H43.6563C42.8895 19.862 42.5059 19.4184 42.5059 18.5313V17.2026H48.773ZM42.5059 12.353C42.5059 11.9015 42.5964 11.5715 42.7772 11.3629C42.9581 11.1543 43.2512 11.0493 43.6563 11.048H44.7157C45.4826 11.048 45.8583 11.483 45.8424 12.353V13.8916H42.5059V12.353Z" fill="#7E5F40"/>
<path d="M50.9634 7.75849V23.1428H53.892V12.3744C53.892 11.5044 54.2675 11.0608 55.0186 11.0437H55.9671C56.1934 11.0357 56.42 11.0536 56.6422 11.0971C56.7959 11.1409 56.9407 11.2113 57.07 11.3051L57.7471 8.12489C57.5822 7.97694 57.3849 7.86979 57.171 7.81197C56.9483 7.74377 56.7168 7.70836 56.4839 7.70703H55.7631C55.4007 7.72544 55.0484 7.83289 54.7375 8.01991C54.3264 8.2638 54.0239 8.6555 53.892 9.11496V7.75849H50.9634Z" fill="#7E5F40"/>
<path d="M25.3673 7.6875H22.3734V19.1014C22.3734 19.8678 21.9912 20.2519 21.2229 20.2519H20.2329C19.4646 20.2519 19.0804 19.8684 19.0804 19.1014V7.6875H16.0905V19.9054C16.0861 20.3468 16.1681 20.7847 16.3321 21.1945C16.6361 21.9729 17.2416 22.5956 18.0113 22.9213C18.4151 23.0923 18.8498 23.1785 19.2884 23.1747H20.417C20.7983 23.168 21.174 23.0817 21.5199 22.9213C21.8475 22.7948 22.1396 22.591 22.3713 22.3272V23.1609H25.3632L25.3673 7.6875Z" fill="#7E5F40"/>
<path d="M35.4774 22.9095C35.856 22.7559 36.2005 22.5291 36.4912 22.2421C36.7801 21.9491 37.0071 21.6009 37.1586 21.2184C37.3212 20.8082 37.4032 20.3705 37.4001 19.9293V10.9094C37.4032 10.4682 37.3212 10.0304 37.1586 9.62028C36.8575 8.84744 36.2485 8.23477 35.4774 7.92917C35.0724 7.76567 34.6391 7.68355 34.2024 7.68765H32.3825C32.0032 7.68448 31.626 7.74673 31.2677 7.87178C30.9264 7.99216 30.6267 8.20791 30.4044 8.49355L30.0599 7.68765H27.666V28.5729H30.6579V22.3213C30.8781 22.6069 31.1726 22.8261 31.5093 22.9551C31.862 23.0893 32.2368 23.1565 32.6143 23.1531H34.1983C34.6365 23.157 35.0713 23.0742 35.4774 22.9095ZM33.2617 20.2283H31.8123C31.044 20.2283 30.6619 19.8441 30.6619 19.0777V11.7609C30.6619 10.9688 31.044 10.5886 31.8123 10.5886H33.2617C34.0287 10.5886 34.4121 10.9794 34.4121 11.7609V19.0777C34.4095 19.8448 34.026 20.2283 33.2617 20.2283Z" fill="#7E5F40"/>
<path d="M11.2194 22.8106C12.2941 22.3843 13.1428 21.5298 13.5618 20.4521C13.7909 19.8771 13.9066 19.2632 13.9024 18.6442V17.5551V16.3076C13.9113 15.7185 13.8182 15.1323 13.6272 14.5749C13.4576 14.0927 13.2131 13.6403 12.9025 13.2343C12.6105 12.8577 12.2579 12.5324 11.8589 12.2719C11.467 12.0167 11.0463 11.8087 10.6055 11.6521L8.71655 10.959L6.58203 10.1669C6.23319 10.0731 5.92456 9.86799 5.70288 9.58277C5.54551 9.31296 5.46854 9.00378 5.48108 8.69167V6.35505C5.46234 5.90768 5.63861 5.4742 5.96425 5.16693C6.28107 4.87582 6.75632 4.7332 7.40773 4.7332H57.7455V0.935183H6.02962C5.41919 0.930724 4.81375 1.04577 4.24752 1.27381C3.71691 1.48814 3.23632 1.80974 2.83571 2.21836C2.43602 2.63219 2.1194 3.11888 1.90308 3.65207C1.67515 4.21837 1.56015 4.82379 1.56449 5.43427V8.92932C1.55716 9.51331 1.66134 10.0933 1.87141 10.6382C2.06172 11.132 2.33418 11.5899 2.67731 11.9927C3.00232 12.3732 3.37888 12.7064 3.79606 12.9828C4.17495 13.2375 4.57986 13.4513 5.00391 13.6204L6.23949 14.0739L8.74823 14.9967C9.10831 15.1128 9.43365 15.317 9.69474 15.5908C9.88551 15.8172 9.98878 16.1045 9.98581 16.4006V17.4818V17.5512C9.98581 18.369 9.65115 19.3452 8.05718 19.3452H6.22957C5.57222 19.3452 5.10293 19.2026 4.79598 18.9076C4.52356 18.6282 4.35037 18.2672 4.30295 17.8799L0.342773 18.8858C0.358761 19.4374 0.476904 19.9813 0.691288 20.4898C0.912348 21.0131 1.23468 21.4875 1.63974 21.8858C2.04809 22.2799 2.52886 22.5912 3.05553 22.8027C3.62181 23.0306 4.22716 23.1456 4.83758 23.1413H9.44126C10.0498 23.1476 10.6538 23.0353 11.2194 22.8106Z" fill="#7E5F40"/>
<path d="M13.7789 31.9625C13.4924 31.6689 13.1477 31.4383 12.7671 31.2853C12.3616 31.1208 11.9275 31.0386 11.49 31.0437H10.3633C9.98246 31.0487 9.60652 31.1308 9.25837 31.2853C8.92944 31.4091 8.6367 31.6134 8.40695 31.8793V31.0516H5.41504V46.5052H8.40695V35.115C8.40695 34.3335 8.7904 33.9427 9.55739 33.9427H10.5474C11.3144 33.9427 11.6979 34.3335 11.6979 35.115V46.5052H14.6878V34.2872C14.6918 33.8459 14.6098 33.4081 14.4462 32.9982C14.2937 32.6125 14.067 32.2607 13.7789 31.9625Z" fill="#7E5F40"/>
<path d="M26.5309 43.2833V34.2872C26.534 33.8461 26.4519 33.4083 26.2893 32.9981C25.9806 32.2178 25.365 31.5985 24.5864 31.2853C24.181 31.1206 23.7468 31.0384 23.3093 31.0437H20.2105C19.7729 31.0388 19.3388 31.1209 18.9333 31.2853C18.552 31.4392 18.2043 31.6658 17.9096 31.9525C17.614 32.2426 17.3827 32.5913 17.2304 32.9763C17.0674 33.3864 16.9854 33.8242 16.9889 34.2654V43.2833C16.9854 43.7247 17.0674 44.1624 17.2304 44.5725C17.3827 44.9575 17.614 45.3062 17.9096 45.5963C18.2043 45.8831 18.552 46.1096 18.9333 46.2636C19.3388 46.4278 19.7729 46.51 20.2105 46.5052H23.3171C23.7547 46.5103 24.189 46.4282 24.5944 46.2636C24.9759 46.1101 25.3236 45.8834 25.6181 45.5963C25.9142 45.3068 26.1457 44.9579 26.2972 44.5725C26.4575 44.1619 26.5368 43.7241 26.5309 43.2833ZM23.5389 42.4318C23.5389 43.214 23.1568 43.6061 22.3885 43.6061H21.1232C20.3563 43.6061 19.9728 43.2147 19.9728 42.4318V35.115C19.9728 34.3335 20.3563 33.9427 21.1232 33.9427H22.3885C23.1568 33.9427 23.5389 34.3387 23.5389 35.115V42.4318Z" fill="#7E5F40"/>
<path d="M27.9175 31.0435L31.739 46.505H34.7091L38.5049 31.0435H35.4418L33.4161 40.5485C33.4003 40.5961 33.3804 40.6535 33.3587 40.7228C33.3393 40.7884 33.2765 40.8313 33.2082 40.8258C33.1452 40.8243 33.0903 40.7829 33.0716 40.7228C33.0445 40.6664 33.0214 40.6081 33.0023 40.5485L30.9766 31.0435H27.9175Z" fill="#7E5F40"/>
<path d="M57.7448 29.757C57.7492 29.1465 57.6342 28.5411 57.4062 27.9748C57.19 27.4416 56.8734 26.9549 56.4736 26.5411C56.0731 26.1325 55.5924 25.8109 55.0618 25.5966C54.4956 25.3685 53.8902 25.2535 53.2798 25.2579H32.9126V28.5629H51.8858C52.5392 28.5629 53.0124 28.7054 53.3312 28.9966C53.6555 29.3046 53.8309 29.7379 53.8124 30.1847V40.4343V42.662C53.8124 43.4541 53.4302 43.8363 52.6619 43.8363H50.0938C49.3294 43.8363 48.9473 43.4402 48.9433 42.6719V34.264C48.9468 33.8226 48.8648 33.3849 48.7018 32.9748C48.5502 32.5894 48.3188 32.2405 48.0226 31.951C47.7282 31.6639 47.3805 31.4372 46.9989 31.2837C46.5935 31.1191 46.1594 31.0369 45.7217 31.0422H42.9041C41.9537 31.0422 41.1755 31.3101 40.5696 31.8461C39.9637 32.3821 39.6607 33.116 39.6607 34.0481V34.2461L42.4903 34.9591C42.5 34.6758 42.6054 34.4043 42.7892 34.1887C42.9595 34.0125 43.2506 33.9233 43.6645 33.9233H44.7911C45.5594 33.9233 45.9416 34.3194 45.9416 35.0957V36.7412H42.7675C42.3289 36.7369 41.8941 36.8233 41.4903 36.9947C41.1101 37.156 40.763 37.3863 40.4666 37.6739C40.1703 37.9632 39.9388 38.3121 39.7875 38.6976C39.6238 39.1075 39.5416 39.5454 39.5459 39.9867V43.2422C39.5427 43.6883 39.6281 44.1305 39.7974 44.5432C40.1066 45.3237 40.7219 45.9434 41.5003 46.2581C41.9023 46.4228 42.3331 46.5062 42.7675 46.5036H44.4466C44.801 46.5073 45.1514 46.4287 45.4703 46.274C45.8692 46.0622 46.2365 45.7955 46.5613 45.4819C46.6513 45.6071 46.752 45.7244 46.8623 45.8323C47.1571 46.1191 47.5047 46.3457 47.886 46.4996C48.2915 46.6639 48.7257 46.746 49.1631 46.7412H54.5233C54.9608 46.746 55.3949 46.6639 55.8004 46.4996C56.1818 46.3457 56.5294 46.1191 56.8241 45.8323C57.1197 45.5424 57.351 45.1936 57.5032 44.8085C57.6663 44.3985 57.7483 43.9607 57.7448 43.5194V35.0976V29.757ZM44.7911 43.6045H43.6882C42.92 43.6045 42.5358 43.2211 42.5358 42.454V40.856C42.5358 40.4422 42.6289 40.1431 42.813 39.959C43.0558 39.7531 43.3711 39.6532 43.6882 39.6818L45.9356 39.6817V40.4303V42.4621C45.9356 43.2244 45.5554 43.6045 44.7911 43.6045Z" fill="#7E5F40"/>
<path d="M9.29996 25.2534H5.41504V28.5584H9.29996H21.4815H25.3664V25.2534H21.4815H9.29996Z" fill="#7E5F40"/>
</svg>
