<svg width="20" height="21" viewBox="0 0 20 21" fill="none" xmlns="http://www.w3.org/2000/svg">
<path d="M10 1.74976C8.1773 1.75192 6.42987 2.47694 5.14103 3.76579C3.85219 5.05463 3.12716 6.80206 3.125 8.62476C3.125 14.5073 9.375 18.9507 9.64111 19.1368C9.74636 19.2103 9.87163 19.2498 10 19.2498C10.1284 19.2498 10.2536 19.2103 10.3589 19.1368C10.625 18.9507 16.875 14.5073 16.875 8.62476C16.8728 6.80206 16.1478 5.05463 14.859 3.76579C13.5701 2.47694 11.8227 1.75192 10 1.74976V1.74976ZM10.0005 6.12498C10.4949 6.12498 10.9783 6.2716 11.3894 6.54631C11.8005 6.82101 12.1209 7.21146 12.3102 7.66827C12.4994 8.12509 12.5489 8.62776 12.4524 9.11271C12.356 9.59766 12.1179 10.0431 11.7682 10.3927C11.4186 10.7424 10.9731 10.9805 10.4882 11.0769C10.0032 11.1734 9.50056 11.1239 9.04375 10.9347C8.58693 10.7455 8.19649 10.425 7.92178 10.0139C7.64708 9.60278 7.50046 9.11944 7.50046 8.62498C7.50045 8.29668 7.56511 7.97158 7.69074 7.66826C7.81637 7.36494 8.00052 7.08934 8.23267 6.85719C8.46482 6.62505 8.74042 6.4409 9.04374 6.31526C9.34706 6.18963 9.67215 6.12497 10.0005 6.12498V6.12498Z" fill="#7E5F40"/>
</svg>
