<svg width="80" height="34" viewBox="0 0 80 34" fill="none" xmlns="http://www.w3.org/2000/svg">
<g clip-path="url(#clip0_323_28)">
<path d="M15.2885 0.216797C13.9526 0.216797 12.6356 0.404944 11.3562 0.781237C9.18312 1.41153 7.25461 2.49337 5.5801 4.03618C3.89619 5.57898 2.59798 7.35697 1.68547 9.37014C1.05518 10.7248 0.603624 12.1359 0.321404 13.6128C0.0391838 15.0898 -0.0548896 16.5667 0.0391838 18.0437C0.133257 19.5207 0.396663 20.9882 0.838807 22.4275C1.28095 23.8762 1.89243 25.2309 2.67324 26.4821C3.36938 27.611 4.18782 28.6458 5.14737 29.5677C6.10692 30.499 7.16995 31.2798 8.33645 31.9289C9.50296 32.5686 10.7259 33.0578 12.0147 33.3871C13.0213 33.6411 14.0279 33.7728 15.0533 33.7728C15.3449 33.7728 15.6365 33.7634 15.9282 33.7445C17.3769 33.6787 18.788 33.4435 20.1709 33.039C21.5538 32.6345 22.8426 32.0136 24.0373 31.1952C23.407 30.6589 22.7297 30.1227 22.0053 29.5865C21.1869 30.0945 20.3308 30.5272 19.4371 30.9035C18.5434 31.2798 17.6215 31.5526 16.6808 31.7032C16.2198 31.7502 15.7683 31.7784 15.3167 31.7784C14.3666 31.7784 13.4352 31.6655 12.5039 31.4397C11.1398 31.1105 9.85104 30.5649 8.6563 29.8123C7.55565 29.0879 6.57728 28.2224 5.71181 27.2159C4.84633 26.2093 4.13138 25.118 3.56693 23.9327C3.00249 22.7568 2.57916 21.515 2.31576 20.2074C2.05235 18.8998 1.95828 17.5921 2.05235 16.2657C2.11821 13.9703 2.67324 11.769 3.72686 9.66176C4.78048 7.55452 6.24803 5.84238 8.1389 4.51595C9.05141 3.82921 10.058 3.293 11.1587 2.90729C12.2593 2.531 13.3882 2.29582 14.5547 2.20174C14.7711 2.19234 14.9874 2.18293 15.2038 2.18293C16.1822 2.18293 17.1511 2.29582 18.1107 2.531C19.2866 2.81322 20.3967 3.25537 21.4409 3.85744C21.375 3.48114 21.3092 3.10485 21.2245 2.71915C21.1492 2.34285 21.0646 1.98538 20.9611 1.6373C20.9329 1.47738 20.7918 1.33627 20.5378 1.21397C19.1079 0.649534 17.5933 0.31087 16.0034 0.235612C15.7588 0.226204 15.5237 0.216797 15.2885 0.216797ZM23.4352 1.39271C23.2189 1.86308 22.9837 2.32404 22.7485 2.785C22.5133 3.24596 22.2875 3.70692 22.0618 4.17729C21.9959 4.29958 21.9865 4.42188 22.0147 4.53476C22.0429 4.64765 22.09 4.76054 22.1558 4.89224C22.4098 5.49431 22.6356 6.07757 22.8426 6.66082C23.0495 7.24408 23.2753 7.83674 23.5293 8.4294C23.5952 7.23467 23.6046 6.05875 23.5575 4.89224C23.5105 3.72573 23.4729 2.56863 23.4446 1.40212M25.486 18.3071C25.0909 18.7681 24.724 19.229 24.376 19.6994C24.0279 19.5395 23.708 19.3889 23.407 19.229C23.106 19.0691 22.8049 18.9092 22.4851 18.7587C22.7955 18.9186 23.106 19.0785 23.407 19.229C23.708 19.3889 24.0279 19.5395 24.376 19.6994C24.724 19.229 25.0909 18.7681 25.486 18.3071ZM15.6554 17.0089C16.2857 17.4793 16.9348 17.9402 17.6121 18.373C18.2894 18.8151 18.9573 19.2572 19.6159 19.69C19.9263 19.5301 20.2367 19.3795 20.5378 19.2196C20.8388 19.0597 21.1398 18.8998 21.4597 18.7493C21.1398 18.9092 20.8388 19.0691 20.5378 19.2196C20.2367 19.3795 19.9357 19.5301 19.6159 19.69C18.9573 19.2478 18.2894 18.8057 17.6121 18.373C16.9348 17.9308 16.2857 17.4793 15.6554 17.0089ZM22.2123 19.0315C22.2405 20.7624 22.2499 22.484 22.2405 24.1961C22.2217 25.9082 22.2311 27.6204 22.2593 29.3137C22.8896 29.7841 23.5293 30.2921 24.1972 30.8189V20.0192C23.8492 19.8593 23.5199 19.7088 23.2095 19.5489C22.8896 19.3889 22.5603 19.2196 22.2217 19.0315" fill="white"/>
<path d="M23.2449 0.827767C22.8968 0.92184 22.577 1.01591 22.276 1.10999C21.9749 1.20406 21.6551 1.29813 21.307 1.39221C21.3729 1.79672 21.4481 2.19183 21.5422 2.56812C21.6363 2.94442 21.7303 3.33953 21.8244 3.74404C22.0784 3.27367 22.3136 2.7939 22.53 2.30472C22.7463 1.81554 22.9815 1.32636 23.2355 0.818359M15.3333 2.60575C15.0135 2.60575 14.7031 2.61516 14.3832 2.64338C13.0662 2.75627 11.8056 3.07612 10.6109 3.61234C9.32206 4.14856 8.17437 4.88233 7.16778 5.83247C6.1612 6.7732 5.29572 7.84564 4.57136 9.04037C3.87521 10.1693 3.3484 11.3922 2.99092 12.6998C2.63344 14.0074 2.43589 15.3245 2.39826 16.6603C2.37004 17.9962 2.50174 19.3226 2.80278 20.649C3.10381 21.9661 3.56477 23.2172 4.19506 24.3743C5.1358 26.1711 6.44342 27.7045 8.10851 28.9745C9.77361 30.2539 11.6269 31.0253 13.6777 31.3075C14.2139 31.3922 14.7501 31.4298 15.2769 31.4298C16.1424 31.4298 16.9984 31.3169 17.8357 31.0912C19.1904 30.7337 20.4415 30.1693 21.608 29.4167C21.2976 29.2567 20.9872 29.0968 20.6861 28.9181C20.3851 28.7487 20.0652 28.5794 19.7172 28.4195C19.5572 28.4195 19.3973 28.4571 19.2186 28.5324C19.0492 28.6076 18.8799 28.6829 18.72 28.7487C17.6758 29.2003 16.5751 29.4261 15.418 29.4261C15.2111 29.4261 15.0041 29.4261 14.7971 29.4073C13.4143 29.3132 12.1254 28.9651 10.9307 28.3725C9.19977 27.4976 7.79807 26.237 6.70682 24.6001C5.62498 22.9632 4.90061 21.2041 4.56195 19.3132C4.3738 18.2407 4.32676 17.1401 4.42084 16.0112C4.51491 14.8823 4.73128 13.7911 5.07935 12.728C5.42742 11.6744 5.88838 10.6772 6.47164 9.73652C7.05489 8.79578 7.76985 7.95853 8.61651 7.23416C9.52902 6.3875 10.5826 5.72899 11.7774 5.24922C12.8969 4.80707 14.0634 4.58129 15.2675 4.58129C15.3428 4.58129 15.4274 4.58129 15.5027 4.58129C16.9796 4.60952 18.3813 4.9764 19.6984 5.66314C21.0248 6.35928 22.1537 7.25298 23.0944 8.35364C22.9063 7.84564 22.7181 7.35646 22.53 6.86728C22.3418 6.3781 22.1537 5.8701 21.9655 5.33388C21.8432 5.07988 21.7209 4.8447 21.608 4.62833C21.4952 4.41196 21.3164 4.23322 21.0624 4.11093C20.6203 3.89456 20.1687 3.67819 19.7172 3.47123C19.2562 3.26427 18.7764 3.10434 18.2778 2.97264C17.2995 2.70923 16.3117 2.57753 15.3145 2.57753M21.0436 16.5568C19.275 16.5568 17.5064 16.5568 15.7473 16.5756C16.6316 16.8579 17.5064 17.1307 18.3907 17.4035C19.275 17.6763 20.1687 17.9491 21.0812 18.2313C21.2976 18.2972 21.5234 18.363 21.7397 18.4477C21.8244 18.4759 21.9091 18.4947 21.9937 18.4947C22.1254 18.4947 22.2666 18.4571 22.3983 18.3819C23.0568 18.0714 23.7153 17.7704 24.3832 17.4882C25.0417 17.2059 25.7002 16.9049 26.3682 16.5945C24.5902 16.5757 22.8216 16.5756 21.053 16.5756M26.641 16.9143C25.9166 17.1965 25.2205 17.4882 24.5431 17.7892C23.8658 18.0902 23.1791 18.4101 22.4923 18.7582C22.8028 18.9181 23.1132 19.078 23.4143 19.2285C23.7153 19.3884 24.0351 19.539 24.3832 19.6989C24.7313 19.2285 25.0982 18.7676 25.4933 18.3066C25.8884 17.855 26.2741 17.3847 26.6504 16.9143M15.6532 17.0084C16.2835 17.4788 16.9326 17.9397 17.6099 18.3724C18.2873 18.8146 18.9552 19.2567 19.6137 19.6895C19.9241 19.5296 20.2346 19.379 20.5356 19.2191C20.8366 19.0592 21.1377 18.8993 21.4575 18.7487C20.4792 18.4665 19.5196 18.1655 18.5601 17.855C17.6005 17.5446 16.6316 17.253 15.6626 17.0084M21.8809 19.031C21.5328 19.1909 21.1847 19.3508 20.8461 19.5296C20.498 19.6989 20.1499 19.8682 19.8112 20.0281V28.0526C20.1593 28.2125 20.498 28.3725 20.8272 28.5512C21.1565 28.7205 21.4952 28.8899 21.8432 29.0498C21.8714 27.3847 21.8903 25.7196 21.8903 24.0733V19.0498" fill="white"/>
<path d="M38.5794 0.583626C37.8551 0.865846 37.1495 1.16688 36.4628 1.47732C35.7761 1.78777 35.0987 2.11702 34.4214 2.46509C34.7318 2.62502 35.0235 2.78494 35.3151 2.93546C35.6067 3.09539 35.9078 3.25531 36.2088 3.40583C36.6133 2.93546 37.0084 2.46509 37.3847 1.99473C37.761 1.52436 38.1561 1.05399 38.5606 0.574219M30.4421 2.02295C30.8372 2.48391 31.2323 2.92605 31.6462 3.3682C31.9567 3.20827 32.2671 3.05776 32.5682 2.89783C32.8692 2.73791 33.189 2.58739 33.5371 2.42746C33.189 2.58739 32.8692 2.74731 32.5682 2.89783C32.2671 3.05776 31.9567 3.21768 31.6462 3.3682C31.2323 2.92605 30.8372 2.48391 30.4421 2.02295ZM34.1486 2.75672C34.1486 7.53565 34.1486 12.2958 34.1204 17.0277C34.1016 21.7595 34.1204 26.5197 34.1486 31.2986C34.4873 31.1387 34.8165 30.9787 35.1364 30.8C35.4562 30.6307 35.7855 30.4613 36.1241 30.3014V3.7539C35.7855 3.59397 35.4562 3.43405 35.1364 3.25531C34.8165 3.08598 34.4873 2.91665 34.1486 2.75672ZM36.2182 30.6871C35.9078 30.847 35.6067 30.9975 35.3245 31.1575C35.0329 31.3174 34.7318 31.4679 34.4308 31.6278C35.1081 31.9383 35.7761 32.2487 36.444 32.5498C37.1119 32.8508 37.7892 33.1424 38.4854 33.4246C38.1373 32.9543 37.7798 32.4933 37.4035 32.0324C37.0272 31.5714 36.6321 31.1292 36.2276 30.6871" fill="white"/>
<path d="M33.1326 0.226562C31.9661 0.226562 30.7996 0.254785 29.6143 0.301821C30.2445 0.584041 30.8654 0.856854 31.4769 1.12967C32.0884 1.39307 32.7093 1.67529 33.3396 1.95751C33.4995 2.02336 33.65 2.07981 33.8099 2.12684C33.8758 2.14566 33.9416 2.15507 34.0075 2.15507C34.0921 2.15507 34.1862 2.13625 34.2803 2.09862C34.967 1.78818 35.6538 1.47774 36.3311 1.1767C37.0084 0.875669 37.6763 0.574634 38.3349 0.254785C36.8861 0.254785 35.4374 0.254785 33.9981 0.23597C33.7064 0.23597 33.4242 0.23597 33.1326 0.23597M29.332 0.640485C29.6801 1.11085 30.047 1.57181 30.4421 2.03277C30.8372 2.49373 31.2323 2.93588 31.6462 3.37802C31.9567 3.2181 32.2671 3.06758 32.5682 2.90765C32.8692 2.74773 33.189 2.59721 33.5371 2.43729C32.8127 2.15507 32.1166 1.85403 31.4393 1.54359C30.7619 1.23315 30.0658 0.932113 29.3414 0.649893M33.7629 2.75714L31.7779 3.74491V30.3583C32.126 30.5182 32.4553 30.6687 32.7657 30.8286C33.0856 30.9886 33.4054 31.1391 33.7535 31.299V2.75714H33.7629ZM31.6462 30.6405C31.2699 31.1109 30.8842 31.5718 30.4891 32.0328C30.094 32.4937 29.7271 32.9547 29.3791 33.4251C30.0658 33.1428 30.7619 32.8512 31.4581 32.5502C32.1448 32.2491 32.841 31.9293 33.5371 31.5812C33.189 31.4213 32.8692 31.2708 32.5682 31.1109C32.2671 30.9509 31.9661 30.8004 31.6462 30.6405ZM33.951 31.854C33.8758 31.854 33.8005 31.8728 33.7159 31.9105C33.5277 32.0045 33.349 32.0798 33.1984 32.1457C32.5964 32.4279 32.0037 32.6913 31.4016 32.9453C30.7996 33.1993 30.2069 33.4627 29.6048 33.7449C31.0348 33.7637 32.4741 33.7637 33.9228 33.7637C35.3715 33.7637 36.8203 33.7637 38.2878 33.7449C37.5917 33.4345 36.9143 33.124 36.2558 32.823C35.5973 32.522 34.92 32.2303 34.2238 31.9481C34.1298 31.8728 34.0357 31.8446 33.9416 31.8446" fill="white"/>
<path d="M56.9408 0.217317C55.605 0.217317 54.2974 0.405464 53.0086 0.781757C50.8355 1.41205 48.9164 2.49389 47.2324 4.0367C45.5485 5.5795 44.2503 7.35749 43.3378 9.37066C42.7075 10.7253 42.256 12.1364 41.9737 13.6134C41.6915 15.0903 41.5975 16.5673 41.6915 18.0442C41.7856 19.5212 42.049 20.9887 42.4911 22.428C42.9333 23.8768 43.5448 25.2314 44.3256 26.4826C45.0217 27.6115 45.8402 28.6463 46.7997 29.5682C47.7593 30.4995 48.8223 31.2803 49.9888 31.9295C51.1553 32.5691 52.3783 33.0583 53.6671 33.3876C54.6737 33.6416 55.6802 33.7733 56.7056 33.7733C56.9973 33.7733 57.2889 33.7639 57.5805 33.7451C59.0292 33.6792 60.4404 33.444 61.8232 33.0395C63.2061 32.635 64.4949 32.0141 65.6896 31.1957C65.0594 30.6595 64.382 30.1232 63.6577 29.587C62.8392 30.095 61.9832 30.5278 61.0895 30.9041C60.1958 31.2803 59.2738 31.5532 58.3331 31.7037C57.8721 31.7507 57.4206 31.7789 56.969 31.7789C56.0189 31.7789 55.0876 31.666 54.1562 31.4403C52.7828 31.111 51.5034 30.5654 50.3086 29.8128C49.208 29.0884 48.2296 28.223 47.3642 27.2164C46.4987 26.2098 45.7837 25.1185 45.2193 23.9332C44.6548 22.7573 44.2409 21.5155 43.9681 20.2079C43.7047 18.9003 43.6106 17.5927 43.7047 16.2662C43.7705 13.9708 44.3256 11.7695 45.3792 9.66228C46.4328 7.55504 47.9004 5.8429 49.7912 4.51647C50.7038 3.82973 51.7103 3.29352 52.811 2.90782C53.9117 2.53152 55.0405 2.29634 56.207 2.20226C56.4234 2.19286 56.6398 2.18345 56.8562 2.18345C57.8345 2.18345 58.8035 2.29634 59.763 2.53152C60.9483 2.81374 62.049 3.25589 63.0932 3.85796C63.0274 3.48166 62.9615 3.10537 62.8768 2.71967C62.8016 2.34338 62.7169 1.9859 62.6229 1.63782C62.5946 1.4779 62.4535 1.33679 62.1995 1.21449C60.7508 0.621832 59.2362 0.283168 57.6464 0.198502C57.4018 0.189095 57.1666 0.179688 56.9314 0.179688M65.0876 1.39323C64.8712 1.8636 64.636 2.32456 64.4008 2.78552C64.1657 3.24648 63.9399 3.70744 63.7141 4.17781C63.6483 4.3001 63.6388 4.4224 63.6671 4.53528C63.6953 4.64817 63.7423 4.76106 63.8082 4.89276C64.0622 5.49483 64.2879 6.07809 64.4949 6.66134C64.7019 7.2446 64.9277 7.83726 65.1816 8.42992C65.2475 7.23519 65.2569 6.05927 65.2099 4.89276C65.1628 3.72625 65.1252 2.56915 65.097 1.40264M67.1384 18.3076C66.7433 18.7686 66.3764 19.2295 66.0283 19.6999C65.6802 19.54 65.3604 19.3895 65.0594 19.2295C64.7583 19.0696 64.4573 18.9097 64.1374 18.7592C64.4479 18.9191 64.7583 19.079 65.0594 19.2295C65.3604 19.3895 65.6802 19.54 66.0283 19.6999C66.3764 19.2295 66.7433 18.7686 67.1384 18.3076ZM57.3077 17.0094C57.938 17.4798 58.5871 17.9407 59.2644 18.3735C59.9418 18.8156 60.6097 19.2578 61.2682 19.6905C61.5786 19.5306 61.8891 19.3801 62.1901 19.2201C62.4911 19.0602 62.7922 18.9003 63.112 18.7498C62.8016 18.9097 62.4911 19.0696 62.1901 19.2201C61.8891 19.3801 61.588 19.5306 61.2682 19.6905C60.6097 19.2484 59.9418 18.8062 59.2644 18.3735C58.5871 17.9313 57.938 17.4798 57.3077 17.0094ZM63.8646 19.032C63.8928 20.7629 63.9022 22.4845 63.8928 24.1966C63.874 25.9088 63.8928 27.6209 63.9117 29.3142C64.542 29.7846 65.1816 30.2926 65.8496 30.8194V20.0198C65.5015 19.8598 65.1722 19.7093 64.8618 19.5494C64.5419 19.3895 64.2127 19.2201 63.874 19.032" fill="white"/>
<path d="M64.9012 0.827767C64.5531 0.92184 64.2333 1.01591 63.9322 1.10999C63.6312 1.20406 63.3113 1.29813 62.9633 1.39221C63.0291 1.79672 63.1044 2.19183 63.1984 2.56812C63.2925 2.94442 63.3866 3.33953 63.4807 3.74404C63.7347 3.27367 63.9699 2.7939 64.1862 2.30472C64.4026 1.81554 64.6378 1.32636 64.8918 0.818359M56.9896 2.60575C56.6698 2.60575 56.3593 2.61516 56.0395 2.64338C54.7224 2.75627 53.4619 3.07612 52.2671 3.61234C50.9783 4.14856 49.8306 4.88233 48.824 5.83247C47.8175 6.7732 46.952 7.84564 46.2276 9.04037C45.5315 10.1693 45.0047 11.3922 44.6472 12.6998C44.2897 14.0074 44.0921 15.3245 44.0545 16.6603C44.0263 17.9962 44.158 19.3226 44.4496 20.649C44.7507 21.9661 45.2116 23.2172 45.8419 24.3743C46.7826 26.1711 48.0903 27.7045 49.7554 28.9745C51.4205 30.2539 53.2737 31.0253 55.3245 31.3075C55.8607 31.3922 56.3875 31.4298 56.9143 31.4298C57.7798 31.4298 58.6359 31.3169 59.4731 31.0912C60.8278 30.7337 62.079 30.1693 63.2455 29.4167C62.935 29.2567 62.6246 29.0968 62.3236 28.9181C62.0225 28.7487 61.7027 28.5794 61.3546 28.4195C61.1947 28.4195 61.0348 28.4571 60.856 28.5324C60.6867 28.6076 60.5174 28.6829 60.3574 28.7487C59.3132 29.2003 58.2126 29.4261 57.0555 29.4261C56.8485 29.4261 56.6415 29.4261 56.4346 29.4073C55.0517 29.3132 53.7629 28.9651 52.5682 28.3725C50.8372 27.4976 49.4355 26.237 48.3443 24.6001C47.2624 22.9632 46.5475 21.2041 46.1994 19.3132C46.0112 18.2407 45.9642 17.1401 46.0583 16.0112C46.1524 14.8823 46.3687 13.7911 46.7168 12.728C47.0649 11.6744 47.5258 10.6772 48.1091 9.73652C48.6923 8.79578 49.4073 7.95853 50.2539 7.23416C51.1665 6.3875 52.2201 5.72899 53.4148 5.24922C54.5343 4.80707 55.7008 4.58129 56.9049 4.58129C56.9802 4.58129 57.0649 4.58129 57.1401 4.58129C58.6171 4.60952 60.0188 4.9764 61.3358 5.66314C62.6622 6.35928 63.7911 7.25298 64.7318 8.35364C64.5437 7.84564 64.3555 7.35646 64.1674 6.86728C63.9793 6.3781 63.7911 5.8701 63.603 5.33388C63.4807 5.07988 63.3584 4.8447 63.2455 4.62833C63.1326 4.41196 62.9539 4.23322 62.6999 4.11093C62.2577 3.89456 61.8062 3.67819 61.3546 3.47123C60.8937 3.26427 60.4139 3.10434 59.9153 2.97264C58.9369 2.70923 57.9492 2.57753 56.952 2.57753M62.6999 16.5568C60.9313 16.5568 59.1627 16.5568 57.4035 16.5756C58.2784 16.8579 59.1627 17.1307 60.047 17.4035C60.9219 17.6763 61.825 17.9491 62.7375 18.2313C62.9539 18.2972 63.1796 18.363 63.396 18.4477C63.4807 18.4759 63.5653 18.4947 63.65 18.4947C63.7817 18.4947 63.9228 18.4571 64.0545 18.3819C64.713 18.0714 65.3715 17.7704 66.0395 17.4882C66.698 17.2059 67.3565 16.9049 68.0244 16.5945C66.2464 16.5757 64.4778 16.5756 62.7093 16.5756M68.2972 16.9143C67.5729 17.1965 66.8767 17.4882 66.1994 17.7892C65.5221 18.0902 64.8353 18.4101 64.1486 18.7582C64.459 18.9181 64.7695 19.078 65.0705 19.2285C65.3715 19.3884 65.6914 19.539 66.0395 19.6989C66.3875 19.2285 66.7544 18.7676 67.1495 18.3066C67.5446 17.855 67.9303 17.3847 68.3066 16.9143M57.3095 17.0084C57.9397 17.4788 58.5889 17.9397 59.2662 18.3724C59.9435 18.8146 60.6114 19.2567 61.2699 19.6895C61.5804 19.5296 61.8908 19.379 62.1919 19.2191C62.4929 19.0592 62.7939 18.8993 63.1138 18.7487C62.1354 18.4665 61.1665 18.1655 60.2069 17.855C59.2474 17.5446 58.2784 17.253 57.3095 17.0084ZM63.5371 19.031C63.189 19.1909 62.8504 19.3508 62.5023 19.5296C62.1542 19.6989 61.8062 19.8682 61.4675 20.0281V28.0526C61.8156 28.2125 62.1542 28.3725 62.4835 28.5512C62.8127 28.7205 63.1514 28.8899 63.4995 29.0498C63.5277 27.3847 63.5465 25.7196 63.5465 24.0733V19.0498" fill="white"/>
<path d="M80.0018 0.583268C79.2774 0.865488 78.5719 1.16652 77.8946 1.47696C77.2078 1.79681 76.5305 2.12607 75.8532 2.46474C76.1636 2.62466 76.4552 2.77518 76.7469 2.9351C77.0385 3.09503 77.3395 3.24554 77.6406 3.40547C78.0451 2.9351 78.4402 2.46474 78.8165 1.98496C79.1928 1.51459 79.5879 1.04423 79.9924 0.564453M75.571 2.75636C75.571 7.53529 75.571 12.2954 75.5427 17.0273C75.5239 21.7592 75.5427 26.5193 75.571 31.2982C75.9096 31.1383 76.2389 30.9784 76.5587 30.7996C76.8786 30.6303 77.2078 30.461 77.5465 30.301V3.75354C77.2078 3.59362 76.8786 3.43369 76.5587 3.25495C76.2389 3.08562 75.9096 2.91629 75.571 2.75636Z" fill="white"/>
<path d="M74.5545 0.226562C73.388 0.226562 72.2215 0.254785 71.0361 0.301821C71.6664 0.584041 72.2873 0.856854 72.8988 1.12967C73.5103 1.39307 74.1311 1.67529 74.7614 1.95751C74.9214 2.02336 75.0719 2.07981 75.2318 2.12684C75.2977 2.14566 75.3635 2.15507 75.4294 2.15507C75.514 2.15507 75.6081 2.13625 75.7022 2.09862C76.3889 1.78818 77.0756 1.47774 77.753 1.1767C78.4303 0.875669 79.0982 0.574634 79.7567 0.254785C78.308 0.254785 76.8593 0.254785 75.4199 0.23597C75.1283 0.23597 74.8461 0.23597 74.5545 0.23597M70.7539 0.640485C71.102 1.11085 71.4689 1.57181 71.864 2.03277C72.2591 2.49373 72.6542 2.93588 73.0681 3.37802C73.3786 3.2181 73.689 3.06758 73.99 2.90765C74.2911 2.74773 74.6109 2.59721 74.959 2.43729C74.2346 2.15507 73.5385 1.85403 72.8611 1.54359C72.1838 1.23315 71.4877 0.932113 70.7633 0.649893M75.1942 2.75714L73.2092 3.74491V30.3583C73.5573 30.5182 73.8866 30.6687 74.197 30.8286C74.5074 30.9886 74.8367 31.1391 75.1848 31.299V2.75714H75.1942ZM73.0681 30.6405C72.6918 31.1109 72.3061 31.5718 71.911 32.0328C71.5159 32.4937 71.149 32.9547 70.8009 33.4251C71.4877 33.1428 72.1838 32.8512 72.88 32.5502C73.5761 32.2491 74.2628 31.9293 74.959 31.5812C74.6109 31.4213 74.2911 31.2708 73.99 31.1109C73.689 30.9509 73.388 30.8004 73.0681 30.6405ZM77.6401 30.6875C77.3296 30.8474 77.038 30.998 76.7464 31.1579C76.4548 31.3178 76.1537 31.4683 75.8527 31.6283C76.53 31.9481 77.1979 32.2491 77.8659 32.5502C78.5338 32.8512 79.2111 33.1428 79.9072 33.4251C79.5592 32.9547 79.2017 32.4937 78.8254 32.0328C78.4491 31.5718 78.054 31.1297 77.6495 30.6875M75.3729 31.854C75.2977 31.854 75.2224 31.8728 75.1377 31.9105C74.9496 32.0045 74.7708 32.0798 74.6203 32.1457C74.0183 32.4279 73.4256 32.6913 72.8235 32.9453C72.2215 33.1993 71.6288 33.4627 71.0267 33.7449C72.4566 33.7637 73.896 33.7637 75.3447 33.7637C76.7934 33.7637 78.2516 33.7637 79.7097 33.7449C79.0136 33.4345 78.3362 33.124 77.6777 32.823C77.0192 32.522 76.3419 32.2303 75.6457 31.9481C75.5517 31.8728 75.4576 31.8446 75.3635 31.8446" fill="white"/>
</g>
<defs>
<clipPath id="clip0_323_28">
<rect width="80" height="33.5654" fill="white" transform="translate(0 0.216797)"/>
</clipPath>
</defs>
</svg>
