<svg width="85" height="56" viewBox="0 0 85 56" fill="none" xmlns="http://www.w3.org/2000/svg">
<g clip-path="url(#clip0_122_710)">
<path d="M33.9651 10.3447C35.067 10.0095 35.6384 8.67217 35.2414 7.35724C34.8444 6.04231 33.6274 5.24888 32.5255 5.58413C31.4236 5.91938 30.8522 7.25666 31.2492 8.5716C31.6462 9.88653 32.8631 10.68 33.9651 10.3447Z" fill="#7E5F40"/>
<path d="M28.047 13.4589C28.073 13.4738 28.3624 13.593 28.789 13.7606C31.1042 14.9638 31.6645 16.1782 32.3917 18.6628C32.4807 18.9608 32.5661 19.3705 32.6662 19.8436C33.1374 22.06 33.9203 25.7552 36.8477 27.9195C35.8756 29.1077 35.0334 30.229 34.551 31.0969H34.5585C33.6457 32.6651 33.1263 34.3675 33.0892 36.1704C33.0632 37.4034 33.2302 38.6289 33.5381 39.8321H34.5251C34.4583 39.5788 34.4026 39.318 34.3507 39.0573C34.1949 38.2452 34.0168 37.4183 34.0316 36.5988C34.0502 35.6936 34.206 34.7698 34.436 33.8907C34.6512 33.06 34.9814 32.2926 35.3821 31.5625L35.3933 31.57C36.447 29.6739 39.3966 26.3885 41.5152 24.0566C43.6226 22.3729 45.1327 23.4904 46.3348 22.6821C47.5889 21.8439 47.3588 20.3874 46.6465 19.9144C46.1233 19.5679 45.4518 19.3705 44.9843 18.4281C44.7839 18.0221 44.6986 17.7054 44.6689 17.4708C45.129 17.9848 45.6632 18.4393 46.2532 18.6739C47.7707 19.2774 48.5016 20.9723 48.0304 22.7975C47.8486 23.4941 47.4219 24.1497 47.0435 24.7271C46.6168 25.379 46.3385 26.0383 46.4313 26.6045C46.1641 26.6269 45.6632 26.6045 45.3442 26.612C43.4742 26.6678 40.6507 26.7498 39.2965 28.4074C37.9682 30.0353 37.2855 31.272 37.0851 32.4156C36.9553 33.1568 37.1408 33.8683 37.6343 34.5314C38.5618 35.7793 40.5394 36.6248 42.7396 37.4332C42.7396 37.4332 46.3237 38.7779 48.0972 39.4484C48.3903 39.5602 48.6648 39.6868 48.9283 39.8284H50.6721C50.1526 39.3963 49.5701 39.0312 48.9171 38.7406C47.971 38.3234 46.9767 38.0068 46.0083 37.6418C45.1364 37.3102 43.3369 36.6844 43.3369 36.6844C41.0477 35.8798 39.3002 35.0491 38.4579 33.9167C38.1351 33.4809 38.0164 33.0488 38.098 32.5944C38.265 31.6482 38.8995 30.5232 40.0904 29.0593C41.1479 27.763 43.6931 27.6885 45.3775 27.6363C46.6316 27.5991 47.9525 27.5767 47.9005 27.1186C47.8597 26.7647 47.4219 26.7908 47.318 26.4034C47.2809 26.2395 47.6705 25.6435 47.9005 25.2896C48.3012 24.6787 48.8021 23.915 49.0247 23.0546C49.6295 20.7153 48.6463 18.5175 46.6353 17.7166C45.4369 17.2398 44.3164 15.273 43.9862 14.5578H43.9751C43.3109 12.6543 42.6505 10.7471 42.0049 8.83614C41.53 7.42436 41.0922 5.99767 40.6321 4.58217C40.4615 4.04949 39.7528 1.48294 39.5673 0.931641C39.2408 1.04712 38.8475 1.85172 39.1963 3.28213C39.2445 3.42368 39.2816 3.52798 39.315 3.63228C40.0793 6.11315 40.8882 8.58284 41.5968 11.0786C42.0717 12.7586 42.2906 14.4982 42.2721 16.2527C42.2647 16.8375 42.1942 17.4186 42.1496 18.0481C37.5526 16.1893 33.0632 14.3753 28.5627 12.5574C23.9472 10.9818 27.2641 13.0789 28.0544 13.4552L28.047 13.4589ZM45.9526 20.3874C46.1938 20.3874 46.3867 20.5849 46.3867 20.8233C46.3867 21.0617 46.1901 21.2591 45.9526 21.2591C45.7152 21.2591 45.5185 21.0617 45.5185 20.8233C45.5185 20.5849 45.7152 20.3874 45.9526 20.3874ZM43.6226 19.6797C43.4853 20.1639 43.2293 20.6668 42.7952 21.1772C42.439 21.5981 41.8343 22.2611 41.1367 23.0322C40.0422 24.2391 38.662 25.7589 37.4154 27.2378L37.4302 27.2191C34.744 25.2635 33.9982 21.7545 33.5567 19.6536C33.4528 19.1619 33.3638 18.7373 33.2636 18.402C32.8518 16.9977 32.4696 15.8727 31.709 14.9079C31.709 14.8893 41.9678 19.0055 43.6263 19.676L43.6226 19.6797Z" fill="#7E5F40"/>
<path d="M41.9608 20.5213L41.9831 20.4692C39.371 19.3405 36.4845 18.1373 33.8465 17.0757L33.8242 17.1278C35.0189 18.0479 36.3398 18.6812 37.7051 19.2734C39.0853 19.8248 40.4693 20.3202 41.9571 20.5213H41.9608Z" fill="#7E5F40"/>
<path d="M3.28129 44.6932C5.52228 44.6783 7.26239 45.5984 7.26239 47.9414C7.26239 50.2844 4.85072 51.7521 2.9214 51.7521H2.40938V54.2516C2.40938 54.6725 2.53553 55.3617 2.76557 55.6746H0.342773C0.576519 55.3617 0.698957 54.6762 0.698957 54.2516V46.1608C0.698957 45.833 0.572809 45.0508 0.342773 44.7379C1.21468 44.7379 2.78412 44.6895 3.28129 44.6895V44.6932ZM2.41309 46.254V51.1263C2.46132 51.1561 2.84719 51.1747 2.92511 51.1747C4.0456 51.1747 5.57051 50.0647 5.57051 47.9414C5.57051 46.6302 4.77652 45.4568 3.285 45.4568C2.73959 45.4568 2.41309 45.7697 2.41309 46.254Z" fill="#7E5F40"/>
<path d="M14.2823 54.6575C15.4324 54.6575 16.2895 53.9535 16.4899 53.7523L15.5734 55.9389C15.2618 55.8309 14.6236 55.7526 13.3658 55.6744C12.9466 55.6446 10.5349 55.6744 9.27344 55.6744C9.50718 55.3615 9.62962 54.583 9.62962 54.2515V46.1607C9.62962 45.8329 9.50347 45.0506 9.27344 44.7377H13.0542C14.3305 44.7377 14.9983 44.7079 15.31 44.5962L15.8703 46.6561C15.6662 46.455 14.798 45.7509 11.3438 45.7509V49.9975H15.0614C14.9538 50.1688 14.5791 50.8095 14.5494 50.9809C14.5197 50.9176 14.0188 50.8729 13.8816 50.8729H11.3475V54.6538H14.286L14.2823 54.6575Z" fill="#7E5F40"/>
<path d="M23.4875 54.6575C24.6376 54.6575 25.4947 53.9535 25.6951 53.7524L24.7786 55.9389C24.467 55.8309 23.8288 55.7527 22.571 55.6745C22.1518 55.6447 19.7846 55.6745 18.5269 55.6745C18.7606 55.3616 18.883 54.583 18.883 54.2515V46.1608C18.883 45.833 18.7569 45.0507 18.5269 44.7378H20.9534C20.7196 45.0507 20.5972 45.7361 20.5972 46.1608V54.6575H23.4912H23.4875Z" fill="#7E5F40"/>
<path d="M32.8224 54.6575C33.9726 54.6575 34.8297 53.9535 35.03 53.7524L34.1136 55.9389C33.8019 55.8309 33.1638 55.7527 31.906 55.6745C31.4867 55.6447 29.1196 55.6745 27.8618 55.6745C28.0956 55.3616 28.218 54.583 28.218 54.2515V46.1608C28.218 45.833 28.0919 45.0507 27.8618 44.7378H30.2883C30.0546 45.0507 29.9321 45.7361 29.9321 46.1608V54.6575H32.8261H32.8224Z" fill="#7E5F40"/>
<path d="M39.167 54.2515C39.167 54.6724 39.2932 55.3616 39.5232 55.6745H37.1895C37.4232 55.3616 37.5456 54.6762 37.5456 54.2515V46.1608C37.5456 45.833 37.4195 45.0507 37.1895 44.7378H39.5232C39.2895 45.0507 39.167 45.7361 39.167 46.1608V54.2515Z" fill="#7E5F40"/>
<path d="M47.8007 54.6725C49.3108 54.6725 50.5537 53.6556 51.2698 53.1118C50.3979 54.4714 49.1067 55.8124 47.1143 55.8124C44.1573 55.8124 41.7642 53.3129 41.7642 50.2211C41.7642 47.1294 44.161 44.6299 47.1143 44.6299C48.079 44.6299 49.3702 45.0843 50.1642 45.6282L49.4036 47.2225C48.2979 46.0975 47.3963 45.4419 46.3241 45.4419C44.365 45.4419 42.996 48.3475 43.6638 50.9252C44.365 53.6742 46.3871 54.6725 47.8007 54.6725Z" fill="#7E5F40"/>
<path d="M52.0488 55.671C52.5794 55.1384 52.9653 54.2183 53.5403 52.5458L55.44 47.0625C55.6886 46.4553 56.0151 45.4235 55.9372 44.7344H57.5845L60.1965 52.542C60.8347 54.1214 61.2688 55.306 61.7845 55.6673H58.846C58.9536 54.9633 58.9536 54.1214 58.4119 52.4973H54.3974C53.7926 54.1997 53.7147 55.4177 54.0078 55.6673H52.0488V55.671ZM58.2078 51.8603C57.6624 50.1282 56.4047 46.1909 56.4047 46.1909L54.6015 51.8603H58.2115H58.2078Z" fill="#7E5F40"/>
<path d="M71.5089 55.6707H69.7057C69.7057 55.2796 69.2234 54.4378 69.0045 54.0168L64.9121 47.3006V54.2515C64.9121 54.6724 65.0382 55.3616 65.2683 55.6745H63.6357C63.8695 55.3616 63.9919 54.6762 63.9919 54.2515V46.1608C63.9919 45.833 63.8658 45.0507 63.6357 44.7378H65.643C65.6133 45.0358 65.9546 45.7547 66.2032 46.1608L70.5887 53.3128V46.1608C70.5887 45.833 70.4626 45.0507 70.2326 44.7378H71.8651C71.6313 45.0507 71.5089 45.7361 71.5089 46.1608V55.6707Z" fill="#7E5F40"/>
<path d="M84.3428 50.236C84.3428 53.3278 82.009 55.8124 79.1484 55.8124C76.2878 55.8124 73.9541 53.3278 73.9541 50.236C73.9541 47.1443 76.273 44.6597 79.1484 44.6597C82.0239 44.6597 84.3428 47.1592 84.3428 50.236ZM82.4431 50.236C82.0536 47.595 80.2801 45.4717 78.4917 45.4717C76.7034 45.4717 75.4753 47.595 75.8463 50.236C76.2025 52.8585 77.9612 55.0003 79.7977 55.0003C81.6343 55.0003 82.7993 52.8622 82.4431 50.236Z" fill="#7E5F40"/>
</g>
<defs>
<clipPath id="clip0_122_710">
<rect width="84" height="55" fill="white" transform="translate(0.342773 0.935547)"/>
</clipPath>
</defs>
</svg>
